<svg width="40" height="40" viewBox="0 0 40 40" fill="none" xmlns="http://www.w3.org/2000/svg">
<g clip-path="url(#clip0_135_46)">
<path d="M17.8436 23.4113C18.0127 23.4108 18.1818 23.4103 18.3509 23.4098C18.7043 23.4088 19.0577 23.4085 19.4111 23.4086C19.8585 23.4086 20.3057 23.4065 20.7531 23.4038C21.1023 23.4021 21.4515 23.4018 21.8008 23.4019C21.9654 23.4017 22.13 23.401 22.2946 23.3998C26.5032 23.3713 30.2607 25.0613 33.2471 27.9835C34.1453 28.8827 34.9047 29.9201 35.5469 31.0157C35.5935 31.095 35.5935 31.095 35.6411 31.1759C36.5405 32.7316 37.0857 34.4124 37.4219 36.172C37.4506 36.3099 37.4506 36.3099 37.4799 36.4506C37.5908 37.07 37.5986 37.6925 37.6074 38.3204C37.6095 38.4091 37.6115 38.4978 37.6136 38.5892C37.6146 39.0681 37.6124 39.4012 37.2656 39.7657C36.9414 40.0072 36.7013 40.0295 36.3012 40.0298C36.2439 40.0302 36.1866 40.0305 36.1275 40.0309C35.935 40.0318 35.7425 40.0311 35.5499 40.0304C35.4107 40.0307 35.2715 40.0311 35.1323 40.0316C34.7492 40.0328 34.3662 40.0324 33.9832 40.0319C33.5703 40.0315 33.1574 40.0325 32.7445 40.0333C31.9355 40.0346 31.1264 40.0347 30.3174 40.0343C29.6599 40.034 29.0025 40.0341 28.3451 40.0345C28.2048 40.0346 28.2048 40.0346 28.0618 40.0347C27.8719 40.0348 27.682 40.0349 27.4921 40.035C25.7104 40.0361 23.9286 40.0357 22.1469 40.0348C20.516 40.034 18.885 40.035 17.2541 40.0369C15.5804 40.0388 13.9068 40.0395 12.2331 40.039C11.293 40.0387 10.353 40.0389 9.41298 40.0403C8.61277 40.0414 7.81256 40.0415 7.01235 40.0401C6.60391 40.0395 6.19548 40.0393 5.78704 40.0405C5.41332 40.0416 5.03963 40.0412 4.66592 40.0397C4.53054 40.0394 4.39517 40.0396 4.2598 40.0404C4.07605 40.0415 3.89241 40.0406 3.70867 40.0392C3.55547 40.0392 3.55547 40.0392 3.39917 40.0392C3.00185 39.9825 2.75392 39.8154 2.51188 39.4986C2.41306 39.2772 2.39061 39.1248 2.388 38.8831C2.38709 38.8028 2.38619 38.7225 2.38525 38.6398C2.38606 38.5537 2.38687 38.4677 2.3877 38.379C2.3884 38.2889 2.38911 38.1988 2.38983 38.106C2.43231 35.9406 3.00966 33.8063 3.98438 31.8751C4.01272 31.8184 4.04107 31.7617 4.07028 31.7033C4.7505 30.3636 5.63486 29.1535 6.68659 28.0815C6.79487 27.9709 6.90133 27.8585 7.00775 27.7461C9.8477 24.8025 13.8155 23.4142 17.8436 23.4113ZM15.4102 25.9864C15.3386 25.9998 15.267 26.0133 15.1932 26.0271C11.8417 26.6958 8.90312 28.7165 6.9931 31.5342C5.84292 33.2777 4.84375 35.5263 4.84375 37.6563C14.8469 37.6563 24.85 37.6563 35.1563 37.6563C34.9972 36.3991 34.9972 36.3991 34.7119 35.1807C34.692 35.1137 34.6721 35.0466 34.6516 34.9776C34.0152 32.915 32.8859 31.1613 31.4063 29.6095C31.3485 29.5476 31.2908 29.4858 31.2314 29.4221C29.4937 27.6113 27.0367 26.4429 24.5898 25.9864C24.5254 25.9743 24.4609 25.9621 24.3945 25.9496C23.0541 25.722 21.6797 25.7689 20.3252 25.7711C20.0544 25.7716 19.7837 25.7713 19.5129 25.7709C17.4525 25.7503 17.4525 25.7503 15.4102 25.9864Z" fill="current"/>
<path d="M22.5781 0.234304C22.6404 0.251525 22.7028 0.268746 22.7671 0.286489C24.5768 0.801899 26.0557 1.67951 27.4218 2.96868C27.4794 3.02125 27.537 3.07382 27.5964 3.12798C28.9736 4.432 29.8134 6.16119 30.3124 7.96868C30.3349 8.0485 30.3349 8.0485 30.3579 8.12993C30.7588 9.63137 30.7333 11.6325 30.3124 13.1249C30.2952 13.1873 30.278 13.2497 30.2602 13.3139C29.7448 15.1237 28.8672 16.6026 27.5781 17.9687C27.5255 18.0263 27.4729 18.0839 27.4188 18.1432C26.1147 19.5205 24.3855 20.3603 22.5781 20.8593C22.4982 20.8818 22.4982 20.8818 22.4168 20.9048C20.9154 21.3057 18.9143 21.2802 17.4218 20.8593C17.3594 20.8421 17.2971 20.8249 17.2328 20.8071C15.4231 20.2917 13.9441 19.4141 12.5781 18.1249C12.5204 18.0724 12.4628 18.0198 12.4035 17.9656C11.0262 16.6616 10.1864 14.9324 9.68743 13.1249C9.67242 13.0717 9.65742 13.0185 9.64196 12.9637C9.24106 11.4622 9.26656 9.46114 9.68743 7.96868C9.71326 7.87511 9.71326 7.87511 9.73961 7.77966C10.255 5.96993 11.1326 4.49099 12.4218 3.12493C12.4744 3.06732 12.5269 3.00972 12.5811 2.95037C13.8851 1.57309 15.6143 0.733323 17.4218 0.234304C17.5016 0.211796 17.5016 0.211796 17.5831 0.188833C19.0845 -0.212062 21.0856 -0.186566 22.5781 0.234304ZM13.9843 4.99993C12.3899 6.71003 11.787 8.82133 11.8453 11.1144C11.8967 12.2674 12.2161 13.2718 12.7343 14.2968C12.7761 14.3795 12.8179 14.4622 12.861 14.5474C13.9002 16.4488 15.7572 17.8493 17.8222 18.4618C20.0516 18.9994 22.2194 18.7005 24.2187 17.5781C24.5532 17.3707 24.8567 17.1299 25.1562 16.8749C25.2232 16.8196 25.2901 16.7644 25.3591 16.7074C26.8402 15.4369 27.9013 13.593 28.1249 11.6406C28.3004 9.33593 27.8515 7.17981 26.3281 5.39055C26.2728 5.32358 26.2175 5.25661 26.1605 5.18761C24.7193 3.50744 22.7031 2.5588 20.5126 2.35344C17.9858 2.24264 15.7468 3.2139 13.9843 4.99993Z" fill="current"/>
</g>
<defs>
<clipPath id="clip0_135_46">
<rect width="40" height="40" fill="white"/>
</clipPath>
</defs>
</svg>
