<svg width="40" height="40" viewBox="0 0 40 40" fill="none" xmlns="http://www.w3.org/2000/svg">
<g clip-path="url(#clip0_302_8)">
<path d="M9.41895 5.75681C9.48049 5.75698 9.54204 5.75715 9.60544 5.75732C10.612 5.76173 11.5893 5.81408 12.5781 6.0156C12.655 6.03112 12.7319 6.04665 12.8112 6.06264C15.165 6.55279 17.6586 7.44085 19.5819 8.92763C19.7132 9.03204 19.7132 9.03204 19.9219 9.1406C20.2907 9.07244 20.6316 8.79281 20.9473 8.59373C24.7735 6.23305 29.4519 5.05778 33.9063 6.09373C36.3559 6.68444 36.3559 6.68444 36.7969 7.34373C36.8324 7.58171 36.8324 7.58171 36.8274 7.8433C36.8259 7.98417 36.8259 7.98417 36.8243 8.12788C36.8204 8.27388 36.8204 8.27388 36.8164 8.42283C36.815 8.52167 36.8136 8.62052 36.8121 8.72236C36.8085 8.966 36.8033 9.20952 36.7969 9.4531C36.8725 9.45188 36.9482 9.45065 37.0261 9.44938C37.3083 9.44512 37.5904 9.44244 37.8726 9.44023C37.9945 9.43905 38.1163 9.43746 38.2382 9.43542C38.4139 9.43256 38.5895 9.43125 38.7653 9.43022C38.8192 9.42901 38.8732 9.4278 38.9288 9.42655C39.2916 9.42642 39.5373 9.49351 39.8438 9.68748C40.0157 9.94546 40.0196 10.022 40.0201 10.3217C40.0206 10.405 40.0211 10.4882 40.0216 10.5739C40.0214 10.6657 40.0211 10.7575 40.0209 10.852C40.0213 10.9492 40.0216 11.0465 40.022 11.1466C40.0228 11.417 40.0229 11.6874 40.0227 11.9578C40.0227 12.2492 40.0236 12.5407 40.0243 12.8321C40.0256 13.4032 40.026 13.9744 40.0261 14.5455C40.0262 15.0096 40.0265 15.4738 40.027 15.9379C40.0284 17.2531 40.0291 18.5684 40.029 19.8836C40.029 19.99 40.029 19.99 40.029 20.0986C40.029 20.1696 40.0289 20.2406 40.0289 20.3138C40.0289 21.4651 40.0304 22.6164 40.0326 23.7677C40.0348 24.9492 40.0359 26.1307 40.0358 27.3122C40.0357 27.9758 40.0361 28.6394 40.0378 29.303C40.0392 29.8679 40.0396 30.4329 40.0385 30.9979C40.038 31.2862 40.038 31.5745 40.0394 31.8629C40.0408 32.1752 40.0398 32.4876 40.0386 32.8C40.0394 32.8914 40.0402 32.9828 40.0411 33.077C40.0358 33.6899 40.0358 33.6899 39.8511 33.9998C39.549 34.2599 39.2851 34.2299 38.9031 34.2292C38.8371 34.2294 38.771 34.2296 38.703 34.2298C38.4794 34.2303 38.2558 34.2303 38.0321 34.2302C37.8711 34.2305 37.7102 34.2308 37.5492 34.2311C37.1049 34.2319 36.6607 34.2322 36.2164 34.2324C35.738 34.2327 35.2596 34.2334 34.7812 34.2341C33.6796 34.2356 32.5781 34.2364 31.4766 34.237C30.9325 34.2374 30.3884 34.2378 29.8443 34.2382C27.9826 34.2396 26.121 34.2408 24.2593 34.2413C24.1424 34.2414 24.0255 34.2414 23.9086 34.2414C23.8506 34.2415 23.7926 34.2415 23.7329 34.2415C23.4391 34.2416 23.1454 34.2417 22.8516 34.2418C22.7642 34.2418 22.7642 34.2418 22.675 34.2418C20.7841 34.2425 18.8933 34.2443 17.0025 34.2468C15.0044 34.2495 13.0063 34.2511 11.0083 34.2513C10.789 34.2513 10.5698 34.2514 10.3506 34.2514C10.2966 34.2514 10.2426 34.2514 10.187 34.2514C9.31727 34.2516 8.44753 34.2529 7.57778 34.2545C6.70403 34.256 5.83029 34.2564 4.95654 34.2557C4.48292 34.2554 4.00931 34.2555 3.53569 34.257C3.10251 34.2584 2.66935 34.2583 2.23616 34.2571C2.07907 34.2569 1.92198 34.2573 1.76489 34.2582C1.55204 34.2594 1.33928 34.2586 1.12644 34.2574C1.06484 34.2582 1.00324 34.259 0.939775 34.2598C0.648899 34.2561 0.484345 34.2288 0.237221 34.0698C-0.000381146 33.8255 -0.00985996 33.692 -0.0106989 33.3597C-0.0110954 33.2766 -0.0114915 33.1936 -0.0118999 33.108C-0.0119388 33.016 -0.0119779 32.924 -0.012018 32.8292C-0.0123603 32.732 -0.0127029 32.6349 -0.0130557 32.5348C-0.0139215 32.2642 -0.0144319 31.9936 -0.0147884 31.7231C-0.0152532 31.4316 -0.0161603 31.1401 -0.0169985 30.8487C-0.0189156 30.1443 -0.0200576 29.44 -0.021066 28.7357C-0.0213558 28.5369 -0.021666 28.338 -0.0219839 28.1392C-0.0239552 26.9051 -0.0256788 25.6711 -0.0266503 24.437C-0.0268792 24.151 -0.0271104 23.8651 -0.0273459 23.5792C-0.0274042 23.5081 -0.0274623 23.437 -0.0275223 23.3638C-0.0285113 22.212 -0.0311079 21.0602 -0.034362 19.9083C-0.0376735 18.7265 -0.0395169 17.5446 -0.0399255 16.3628C-0.0401925 15.6989 -0.0411141 15.0351 -0.0436835 14.3712C-0.0458677 13.806 -0.0467316 13.2408 -0.0458555 12.6755C-0.0454495 12.387 -0.0456815 12.0985 -0.0476109 11.81C-0.0496838 11.4975 -0.048741 11.185 -0.0474946 10.8724C-0.0485792 10.7809 -0.0496638 10.6894 -0.0507812 10.5952C-0.0447363 9.98273 -0.044736 9.98273 0.183638 9.67202C0.524541 9.44015 0.81429 9.44257 1.21186 9.44547C1.26875 9.44558 1.32564 9.44569 1.38426 9.44581C1.56575 9.44625 1.74723 9.44723 1.92872 9.44822C2.05185 9.44861 2.17499 9.44897 2.29813 9.44929C2.5998 9.45015 2.90146 9.4515 3.20313 9.4531C3.20149 9.39125 3.19986 9.3294 3.19817 9.26567C3.19167 8.98473 3.18761 8.70381 3.1836 8.42283C3.17967 8.27683 3.17967 8.27683 3.17566 8.12788C3.17466 8.03397 3.17365 7.94006 3.17261 7.8433C3.17098 7.75698 3.16934 7.67065 3.16765 7.58171C3.21159 7.28698 3.3078 7.16304 3.51563 6.9531C3.71836 6.8468 3.90326 6.76304 4.11622 6.68455C4.17667 6.66172 4.23713 6.63889 4.29942 6.61537C4.82828 6.42413 5.36695 6.28018 5.91309 6.14744C6.02974 6.11905 6.02974 6.11905 6.14874 6.09009C7.23973 5.83817 8.30412 5.75129 9.41895 5.75681ZM4.92188 8.28123C4.92188 15.2679 4.92188 22.2547 4.92188 29.4531C5.50948 29.3359 5.50948 29.3359 6.0965 29.216C6.22742 29.1892 6.35834 29.1625 6.48926 29.1357C6.55437 29.1222 6.61948 29.1086 6.68656 29.0947C6.75126 29.0815 6.81597 29.0684 6.88263 29.0548C6.93944 29.0432 6.99625 29.0315 7.05477 29.0194C7.57951 28.9321 8.10101 28.8932 8.63251 28.8876C8.69365 28.8868 8.75479 28.8861 8.81779 28.8853C12.3743 28.85 15.7905 29.6348 18.831 31.5544C18.9778 31.6534 18.9778 31.6534 19.1406 31.6406C19.1603 28.9939 19.1754 26.3472 19.1845 23.7004C19.1856 23.3879 19.1867 23.0754 19.1878 22.7628C19.1881 22.7006 19.1883 22.6384 19.1885 22.5743C19.1923 21.5671 19.199 20.5599 19.2069 19.5527C19.215 18.5191 19.2197 17.4855 19.2215 16.4519C19.2227 15.8141 19.2264 15.1765 19.2334 14.5388C19.2385 14.0496 19.239 13.5606 19.2378 13.0714C19.2381 12.8708 19.2398 12.6703 19.2431 12.4697C19.3212 11.4392 19.3212 11.4392 18.9552 10.528C18.7343 10.3634 18.5361 10.2582 18.2813 10.1562C18.1626 10.087 18.0447 10.0164 17.9282 9.94352C17.8167 9.8819 17.7049 9.82097 17.5928 9.76072C17.5322 9.7278 17.4717 9.69488 17.4093 9.66097C17.2316 9.56487 17.0534 9.46984 16.875 9.37498C16.8276 9.34929 16.7801 9.32359 16.7313 9.29712C13.2286 7.40522 8.67896 6.7784 4.92188 8.28123ZM20.8594 10.7812C20.8518 10.8928 20.8497 11.0048 20.8498 11.1166C20.8496 11.1894 20.8495 11.2622 20.8493 11.3373C20.8495 11.4182 20.8498 11.4991 20.85 11.5825C20.8499 11.6678 20.8499 11.753 20.8498 11.8409C20.8497 12.1289 20.8501 12.4169 20.8505 12.7049C20.8505 12.9104 20.8505 13.116 20.8505 13.3215C20.8504 13.7652 20.8507 14.2089 20.8511 14.6526C20.8518 15.2941 20.852 15.9356 20.8521 16.5771C20.8522 17.6178 20.8527 18.6585 20.8535 19.6992C20.8542 20.7104 20.8548 21.7216 20.8551 22.7328C20.8551 22.7951 20.8551 22.8574 20.8552 22.9216C20.8553 23.234 20.8554 23.5465 20.8554 23.8589C20.8563 26.4528 20.8576 29.0467 20.8594 31.6406C21.1486 31.5272 21.4185 31.3996 21.6919 31.2518C22.7697 30.676 23.838 30.1533 25 29.7656C25.0641 29.7439 25.1281 29.7222 25.1941 29.6998C26.6295 29.2202 28.1468 28.8993 29.6646 28.8904C29.7271 28.8898 29.7895 28.8893 29.8538 28.8887C30.0539 28.8874 30.254 28.8869 30.4541 28.8867C30.5224 28.8866 30.5907 28.8865 30.661 28.8865C31.6552 28.8872 32.6213 28.9143 33.5938 29.1406C33.6826 29.1613 33.6826 29.1613 33.7733 29.1824C34.051 29.2484 34.3268 29.3183 34.6024 29.393C34.8402 29.4625 34.8402 29.4625 35.0781 29.4531C35.0781 22.4664 35.0781 15.4797 35.0781 8.28123C34.074 7.94345 34.074 7.94345 33.0566 7.71482C32.9896 7.70233 32.9225 7.68985 32.8534 7.67698C29.1267 6.99941 23.6658 7.97484 20.8594 10.7812ZM1.71876 11.1719C1.71876 18.2101 1.71876 25.2484 1.71876 32.5C6.7461 32.5 11.7734 32.5 16.9531 32.5C14.5268 30.6802 10.5723 30.2454 7.6368 30.607C6.59424 30.7627 5.56015 31.0543 4.58008 31.4404C4.24795 31.5655 4.01861 31.6022 3.67188 31.4844C3.45213 31.3252 3.30414 31.1996 3.24521 30.9269C3.23055 30.7138 3.22898 30.504 3.23132 30.2904C3.23066 30.2088 3.23001 30.1271 3.22934 30.0429C3.22762 29.7688 3.22869 29.4947 3.22974 29.2206C3.22908 29.0243 3.22825 28.828 3.22726 28.6316C3.22551 28.2087 3.22496 27.7859 3.22549 27.363C3.22625 26.7516 3.22487 26.1401 3.22296 25.5287C3.21992 24.5367 3.21862 23.5447 3.21841 22.5527C3.2182 21.5891 3.21718 20.6255 3.21505 19.6619C3.21492 19.6025 3.21479 19.5431 3.21466 19.4819C3.21399 19.1839 3.21332 18.8859 3.21263 18.5879C3.20697 16.1159 3.20416 13.6439 3.20313 11.1719C2.71329 11.1719 2.22344 11.1719 1.71876 11.1719ZM36.7969 11.1719C36.7968 11.2742 36.7968 11.3765 36.7968 11.4819C36.7957 13.9098 36.7925 16.3378 36.787 18.7657C36.7863 19.0644 36.7856 19.3632 36.785 19.6619C36.7848 19.7214 36.7847 19.7809 36.7846 19.8422C36.7825 20.8056 36.7818 21.769 36.7816 22.7324C36.7813 23.7207 36.7796 24.709 36.7765 25.6973C36.7747 26.3073 36.774 26.9173 36.7747 27.5273C36.7752 27.9948 36.7736 28.4623 36.7713 28.9298C36.7706 29.1218 36.7706 29.3137 36.7714 29.5057C36.7723 29.7673 36.7708 30.0288 36.7687 30.2904C36.7695 30.3668 36.7704 30.4432 36.7712 30.5219C36.7659 30.8802 36.7584 31.0418 36.5355 31.3342C36.2623 31.532 36.1206 31.5662 35.7813 31.5625C35.4819 31.4875 35.1963 31.3817 34.9072 31.2744C34.063 30.9763 33.2278 30.7635 32.3438 30.625C32.2498 30.61 32.1558 30.595 32.059 30.5795C28.92 30.2105 25.8449 31.0465 23.0469 32.4219C23.0469 32.4476 23.0469 32.4734 23.0469 32.5C28.0742 32.5 33.1016 32.5 38.2813 32.5C38.2813 25.4617 38.2813 18.4234 38.2813 11.1719C37.7914 11.1719 37.3016 11.1719 36.7969 11.1719Z" fill="current"/>
</g>
<defs>
<clipPath id="clip0_302_8">
<rect width="40" height="40" fill="white"/>
</clipPath>
</defs>
</svg>
