<svg width="40" height="40" viewBox="0 0 40 40" fill="none" xmlns="http://www.w3.org/2000/svg">
<g clip-path="url(#clip0_135_49)">
<path d="M19.0234 0.689722C19.2187 0.859399 19.2187 0.859399 19.3113 1.01513C19.4237 1.20367 19.5202 1.34112 19.6875 1.4844C20.0283 1.56366 20.3597 1.55061 20.708 1.53811C21.6397 1.51401 21.6397 1.51401 21.9732 1.71877C22.1496 2.0225 22.1699 2.25727 22.1728 2.60256C22.1801 2.89985 22.1801 2.89985 22.1875 3.20315C22.7675 3.43518 22.7675 3.43518 23.3593 3.6719C23.485 3.5446 23.6107 3.41731 23.7402 3.28616C24.1872 2.8334 24.1872 2.8334 24.5019 2.77346C25.191 2.87554 25.8485 3.79478 26.3347 4.27613C26.4317 4.37192 26.5293 4.46728 26.6272 4.56223C26.77 4.70081 26.9116 4.84064 27.0529 4.9808C27.0966 5.0228 27.1404 5.06481 27.1855 5.10809C27.4489 5.37292 27.5666 5.56102 27.5781 5.93752C27.4146 6.35178 27.035 6.65036 26.7187 6.95315C26.8706 7.42127 26.8706 7.42127 27.0458 7.88088C27.1093 8.0469 27.1093 8.0469 27.1093 8.28127C27.2016 8.27856 27.2938 8.27584 27.3889 8.27303C27.5105 8.27084 27.6322 8.2687 27.7539 8.26663C27.8146 8.26466 27.8753 8.2627 27.9379 8.26068C28.2096 8.25719 28.3885 8.25516 28.6315 8.38473C28.8265 8.60027 28.8377 8.80287 28.8357 9.08053C28.8355 9.14322 28.8352 9.20591 28.8349 9.2705C28.8343 9.33561 28.8336 9.40072 28.833 9.4678C28.8324 9.56682 28.8324 9.56682 28.8319 9.66784C28.831 9.83065 28.8296 9.99347 28.8281 10.1563C29.3342 10.153 29.8402 10.1474 30.3463 10.1401C30.5185 10.1379 30.6907 10.1362 30.8628 10.1351C31.1103 10.1334 31.3577 10.1298 31.6052 10.1258C31.7207 10.1256 31.7207 10.1256 31.8385 10.1255C32.2575 10.1207 32.2575 10.1207 32.6242 9.93846C32.8008 9.66137 32.8219 9.42119 32.8372 9.09792C32.8404 9.03196 32.8437 8.966 32.8471 8.89803C32.8517 8.79577 32.8517 8.79577 32.8564 8.69143C32.8598 8.62204 32.8631 8.55266 32.8666 8.48116C32.8749 8.31038 32.8829 8.13959 32.8906 7.96877C32.8198 7.94783 32.749 7.92688 32.676 7.9053C32.1735 7.7219 31.827 7.36445 31.5625 6.90432C31.3108 6.34659 31.3072 5.70801 31.4941 5.12698C31.785 4.49021 32.2429 4.14942 32.8906 3.90627C33.4285 3.75099 33.9851 3.83581 34.4863 4.07473C35.0011 4.38619 35.3558 4.81766 35.5468 5.39065C35.611 6.09554 35.5881 6.6846 35.1562 7.26565C34.8735 7.56622 34.5889 7.78853 34.2187 7.96877C34.2172 8.01243 34.2156 8.05608 34.214 8.10105C34.2065 8.30276 34.1979 8.50441 34.1894 8.70608C34.187 8.77471 34.1846 8.84334 34.1821 8.91406C34.1477 9.69059 34.0453 10.3394 33.5156 10.9375C33.1301 11.2436 32.775 11.4164 32.2782 11.4151C32.1632 11.4151 32.1632 11.4151 32.046 11.4151C31.9635 11.4147 31.8809 11.4143 31.7959 11.4139C31.669 11.4137 31.669 11.4137 31.5394 11.4136C31.2688 11.4131 30.9981 11.4122 30.7275 11.4112C30.5441 11.4108 30.3608 11.4104 30.1774 11.4101C29.7276 11.4092 29.2779 11.4079 28.8281 11.4063C28.8308 11.4751 28.8335 11.5438 28.8363 11.6147C28.8384 11.7054 28.8405 11.7962 28.8427 11.8897C28.8454 11.9794 28.8482 12.0691 28.851 12.1616C28.826 12.4457 28.7641 12.5868 28.5937 12.8125C28.3351 12.9418 28.0475 12.8985 27.7636 12.8955C27.701 12.8952 27.6383 12.8948 27.5738 12.8945C27.419 12.8935 27.2642 12.8921 27.1093 12.8906C27.0867 12.9698 27.0867 12.9698 27.0635 13.0506C27.033 13.1551 27.033 13.1551 27.0019 13.2617C26.982 13.3306 26.962 13.3995 26.9415 13.4705C26.875 13.6719 26.875 13.6719 26.788 13.8437C26.7044 13.9826 26.7044 13.9826 26.7333 14.1455C26.8087 14.3252 26.8794 14.409 27.0312 14.5313C27.202 14.5658 27.202 14.5658 27.3945 14.5595C27.4691 14.5598 27.5437 14.5601 27.6206 14.5604C27.7432 14.5592 27.7432 14.5592 27.8682 14.5579C27.9974 14.5579 27.9974 14.5579 28.1292 14.558C28.4146 14.5578 28.6999 14.556 28.9852 14.5542C29.1828 14.5537 29.3804 14.5534 29.578 14.5532C30.0453 14.5524 30.5127 14.5505 30.98 14.5482C31.512 14.5455 32.044 14.5442 32.5761 14.5431C33.6705 14.5406 34.7649 14.5365 35.8593 14.5313C35.8947 14.4589 35.93 14.3865 35.9664 14.3119C36.2249 13.8054 36.5147 13.5123 37.0306 13.2752C37.6352 13.0899 38.2936 13.1017 38.872 13.3643C39.3247 13.6312 39.6953 14.0161 39.8852 14.5145C40.0138 15.1223 40.0193 15.7929 39.6875 16.3281C39.3156 16.8326 38.9144 17.2174 38.2812 17.3438C37.6129 17.4089 37.0193 17.3259 36.4785 16.9052C36.1989 16.6409 36.0023 16.3773 35.8593 16.0156C35.8593 15.9641 35.8593 15.9125 35.8593 15.8594C34.7591 15.844 33.6589 15.835 32.5586 15.8333C32.0475 15.8323 31.5366 15.8293 31.0256 15.8216C30.5317 15.8143 30.038 15.8124 29.5439 15.8141C29.3563 15.8138 29.1686 15.8116 28.981 15.8074C27.7674 15.7673 27.7674 15.7673 26.7296 16.319C26.542 16.5043 26.368 16.6959 26.2015 16.9002C26.0528 17.081 25.8884 17.2441 25.7223 17.4088C25.5711 17.566 25.4208 17.724 25.272 17.8835C25.0439 18.119 24.9031 18.2632 24.5846 18.36C24.1575 18.3588 23.9348 18.0828 23.6474 17.7979C23.551 17.699 23.4548 17.5998 23.3593 17.5C23.2887 17.5282 23.2181 17.5564 23.1454 17.5855C23.0533 17.6217 22.9611 17.658 22.8662 17.6953C22.7746 17.7316 22.6831 17.7678 22.5888 17.8052C22.3437 17.8906 22.3437 17.8906 22.1093 17.8906C22.112 17.9707 22.1148 18.0508 22.1176 18.1333C22.1198 18.2396 22.1219 18.3459 22.124 18.4522C22.1259 18.5048 22.1279 18.5574 22.1299 18.6116C22.135 18.9616 22.0918 19.1766 21.875 19.4531C21.6169 19.6252 21.541 19.6281 21.2417 19.6247C21.1649 19.6242 21.0881 19.6237 21.009 19.6231C20.889 19.6212 20.889 19.6212 20.7666 19.6192C20.6856 19.6185 20.6047 19.6178 20.5213 19.617C20.3215 19.6152 20.1217 19.6124 19.9218 19.6094C19.9218 19.8672 19.9218 20.125 19.9218 20.3906C20.0414 20.3879 20.1609 20.3852 20.2841 20.3824C20.4416 20.3802 20.5992 20.3781 20.7568 20.376C20.8748 20.3731 20.8748 20.3731 20.9953 20.37C21.7407 20.3627 21.7407 20.3627 22.0312 20.625C22.1292 20.919 22.1177 21.1932 22.1142 21.499C22.1139 21.5576 22.1135 21.6162 22.1131 21.6765C22.1122 21.8208 22.1108 21.9651 22.1093 22.1094C22.178 22.119 22.2467 22.1285 22.3175 22.1384C22.5635 22.1848 22.7678 22.2522 22.998 22.3487C23.0663 22.377 23.1346 22.4053 23.2049 22.4344C23.2813 22.4669 23.2813 22.4669 23.3593 22.5C23.4037 22.4511 23.4482 22.4021 23.4939 22.3517C24.1317 21.6767 24.1317 21.6767 24.6093 21.6406C25.018 21.7956 25.2433 22.0405 25.509 22.3737C26.5313 23.6438 26.5313 23.6438 27.9895 24.216C28.5532 24.252 29.1174 24.211 29.6772 24.1416C29.9218 24.1406 29.9218 24.1406 30.1066 24.239C30.3088 24.4543 30.3125 24.6326 30.3125 24.9219C30.1745 25.1408 30.0757 25.2747 29.8437 25.3906C29.6432 25.3972 29.4445 25.3995 29.244 25.3989C29.1217 25.3999 28.9994 25.4011 28.8771 25.4024C28.6842 25.4042 28.4914 25.4053 28.2985 25.4043C28.1123 25.4036 27.9263 25.4059 27.7401 25.4087C27.6542 25.4072 27.6542 25.4072 27.5665 25.4058C27.3376 25.4111 27.1607 25.4245 26.9834 25.5771C26.8606 25.7191 26.8606 25.7191 26.7187 25.9375C26.7469 26.0025 26.7751 26.0674 26.8042 26.1344C26.8404 26.2193 26.8767 26.3042 26.914 26.3916C26.9684 26.5181 26.9684 26.5181 27.0239 26.6471C27.1093 26.875 27.1093 26.875 27.1093 27.1094C27.1959 27.1076 27.2825 27.1058 27.3718 27.1039C27.4861 27.1024 27.6005 27.101 27.7148 27.0996C27.7718 27.0983 27.8288 27.097 27.8875 27.0957C28.445 27.0906 28.445 27.0906 28.6718 27.2656C28.8538 27.5413 28.8443 27.7812 28.8378 28.1055C28.8364 28.1969 28.835 28.2884 28.8336 28.3826C28.8309 28.4871 28.8309 28.4871 28.8281 28.5938C28.8743 28.5929 28.9205 28.592 28.9681 28.5911C29.4523 28.5825 29.9365 28.5766 30.4207 28.5723C30.6011 28.5704 30.7814 28.5677 30.9617 28.5643C31.222 28.5595 31.4822 28.5573 31.7425 28.5556C31.8222 28.5536 31.9019 28.5516 31.984 28.5495C32.5423 28.5493 32.9749 28.6626 33.4375 28.9844C33.6206 29.1799 33.7704 29.3786 33.9062 29.6094C33.9344 29.656 33.9626 29.7027 33.9917 29.7507C34.138 30.1047 34.144 30.4722 34.1433 30.8502C34.1438 30.9172 34.1442 30.9842 34.1447 31.0532C34.1452 31.1915 34.1436 31.3299 34.1398 31.4682C34.1434 31.6729 34.1536 31.8369 34.2187 32.0313C34.4063 32.2061 34.6166 32.3066 34.8437 32.4219C35.0189 32.5803 35.0189 32.5803 35.1464 32.7295C35.1897 32.7786 35.233 32.8276 35.2777 32.8781C35.6259 33.3986 35.6105 34.0073 35.5468 34.6094C35.3842 35.1525 35.0835 35.5515 34.6093 35.8594C34.0257 36.1671 33.488 36.2298 32.853 36.0816C32.2084 35.8657 31.7895 35.4433 31.4843 34.8438C31.2991 34.2905 31.3212 33.6237 31.5625 33.0957C31.88 32.5434 32.2817 32.2114 32.8906 32.0313C32.8816 31.7936 32.8717 31.556 32.8613 31.3184C32.8577 31.2181 32.8577 31.2181 32.854 31.1157C32.8369 30.7469 32.8123 30.4191 32.6562 30.0781C32.4103 29.9142 32.3468 29.9016 32.0653 29.897C31.9934 29.8954 31.9215 29.8939 31.8473 29.8923C31.77 29.8914 31.6926 29.8905 31.6128 29.8895C31.5334 29.888 31.4539 29.8865 31.3721 29.885C31.1182 29.8803 30.8642 29.8767 30.6103 29.8731C30.4382 29.8701 30.2662 29.867 30.0941 29.8639C29.6721 29.8564 29.2501 29.8498 28.8281 29.8438C28.8308 29.9408 28.8335 30.0377 28.8363 30.1377C28.8385 30.2659 28.8406 30.3942 28.8427 30.5225C28.8457 30.6182 28.8457 30.6182 28.8487 30.7158C28.8532 31.0891 28.8397 31.3386 28.5937 31.6406C28.3351 31.7699 28.0475 31.7267 27.7636 31.7237C27.701 31.7233 27.6383 31.723 27.5738 31.7226C27.419 31.7217 27.2642 31.7203 27.1093 31.7188C27.0953 31.8236 27.0953 31.8236 27.0809 31.9306C27.0231 32.2295 26.9093 32.4555 26.7691 32.7228C26.7016 32.8897 26.7016 32.8897 26.7706 33.0506C26.8844 33.217 27.007 33.3477 27.1533 33.4864C27.3888 33.7106 27.4863 33.8211 27.539 34.1504C27.4466 34.8667 26.5523 35.4909 26.0526 35.9889C25.9117 36.1293 25.7713 36.2701 25.6309 36.411C25.5414 36.5005 25.4518 36.59 25.3622 36.6794C25.3203 36.7215 25.2784 36.7635 25.2352 36.8069C24.8727 37.1671 24.8727 37.1671 24.5605 37.2266C24.2175 37.1758 24.0756 37.0257 23.8302 36.7908C23.6565 36.6261 23.4681 36.4776 23.2812 36.3281C22.9203 36.4828 22.5593 36.6375 22.1875 36.7969C22.1794 36.9677 22.1713 37.1385 22.163 37.3145C22.1438 37.7221 22.0885 38.0082 21.875 38.3594C21.6932 38.4503 21.5904 38.4463 21.3882 38.4449C21.3198 38.4447 21.2514 38.4445 21.181 38.4443C21.1069 38.4438 21.0328 38.4434 20.9564 38.443C20.7995 38.4437 20.6427 38.4445 20.4858 38.4455C20.2384 38.4468 19.9911 38.4473 19.7437 38.4453C19.5049 38.4437 19.2664 38.4455 19.0277 38.4479C18.9545 38.4465 18.8813 38.4452 18.8059 38.4438C18.3054 38.4529 18.0581 38.5767 17.7044 38.9314C17.6627 38.9747 17.621 39.0179 17.5781 39.0625C16.2817 40.0291 14.6276 40.1345 13.0715 39.9695C11.5935 39.6497 10.3388 38.6745 9.5312 37.4219C9.06365 36.6499 8.72714 35.8342 8.74995 34.9219C8.65488 34.9283 8.55982 34.9348 8.46187 34.9414C7.57418 34.9359 6.82195 34.5713 6.17183 33.9844C5.80787 33.6027 5.56837 33.2549 5.4687 32.7344C5.38945 32.7263 5.31019 32.7183 5.22853 32.71C4.35831 32.5576 3.64928 32.0261 3.04683 31.4063C2.9725 31.3344 2.9725 31.3344 2.89668 31.261C2.02448 30.3579 1.68186 29.1154 1.69053 27.8877C1.70671 27.3747 1.81239 26.8976 1.95308 26.4063C1.96969 26.3454 1.98631 26.2846 2.00343 26.2219C2.03715 26.1006 2.07289 25.9799 2.10933 25.8594C2.06763 25.827 2.02594 25.7945 1.98298 25.7611C1.09256 25.0248 0.199877 23.8348 0.0594616 22.6563C0.0492705 22.3816 0.0514912 22.2301 0.200148 21.9922C0.462752 21.8306 0.634296 21.8371 0.937452 21.875C1.28582 22.0549 1.35622 22.3487 1.46968 22.7002C1.6596 23.247 1.89927 23.6882 2.26558 24.1406C2.31432 24.2056 2.36306 24.2706 2.41328 24.3375C3.11201 25.1591 4.12188 25.5558 5.14401 25.7842C5.58759 25.8925 5.58759 25.8925 5.78456 26.1298C5.88179 26.3877 5.86096 26.5348 5.7812 26.7969C5.69331 26.9385 5.69331 26.9385 5.54683 27.0313C5.10685 27.1286 4.7882 27.0857 4.36519 26.9678C4.31131 26.9538 4.25743 26.9399 4.20192 26.9255C3.91225 26.8488 3.63461 26.759 3.35933 26.6406C3.32227 26.7228 3.28521 26.805 3.24702 26.8897C3.22618 26.9359 3.20533 26.9821 3.18385 27.0297C2.87431 27.8589 3.03619 28.7349 3.35933 29.5313C3.724 30.2837 4.24582 30.8737 4.99995 31.25C5.10327 31.2792 5.20734 31.3062 5.31245 31.3281C5.31568 31.2315 5.3189 31.1348 5.32222 31.0352C5.38766 30.4526 5.66329 29.8394 6.08882 29.4287C6.32808 29.2969 6.32808 29.2969 6.61616 29.2969C6.97881 29.4064 6.97881 29.4064 7.10933 29.6094C7.20549 29.8635 7.20125 29.9674 7.09468 30.2197C7.0205 30.3502 6.94618 30.4806 6.87037 30.6101C6.61474 31.0754 6.49901 31.5314 6.59694 32.0618C6.76784 32.636 7.02279 33.0508 7.54878 33.3496C8.05215 33.609 8.5433 33.7004 9.09724 33.5376C9.57931 33.335 9.92542 33.0624 10.2734 32.6709C10.4687 32.5 10.4687 32.5 10.7031 32.4512C11.0214 32.5175 11.1362 32.6311 11.3281 32.8906C11.3838 33.1815 11.3479 33.3198 11.2158 33.584C10.9235 33.9789 10.5016 34.4526 9.99995 34.5313C10.0879 35.2202 10.2236 35.8359 10.5371 36.46C10.5626 36.5114 10.5882 36.5628 10.6146 36.6158C10.7853 36.9389 10.9854 37.1661 11.25 37.4219C11.25 37.4735 11.25 37.525 11.25 37.5781C11.2951 37.5994 11.3402 37.6206 11.3867 37.6425C11.5622 37.7343 11.7142 37.8387 11.875 37.9541C12.886 38.6276 14.007 38.8716 15.2072 38.6579C16.3862 38.369 17.3961 37.6901 18.0273 36.6504C18.4302 35.9278 18.6018 35.2624 18.6061 34.4335C18.6064 34.3782 18.6068 34.323 18.6072 34.266C18.6084 34.0818 18.6091 33.8975 18.6097 33.7133C18.6105 33.5808 18.6113 33.4484 18.6121 33.3159C18.6142 32.957 18.6158 32.598 18.6174 32.2391C18.6191 31.8637 18.6212 31.4883 18.6233 31.113C18.6272 30.4025 18.6307 29.692 18.6341 28.9814C18.638 28.1724 18.6423 27.3634 18.6466 26.5544C18.6555 24.8904 18.6638 23.2265 18.6718 21.5625C18.594 21.595 18.594 21.595 18.5147 21.6281C18.4457 21.6564 18.3767 21.6847 18.3056 21.7139C18.2376 21.742 18.1697 21.7701 18.0996 21.799C17.2495 22.108 16.365 21.9897 15.5468 21.6406C14.947 21.3064 14.5184 20.8793 14.1406 20.3125C14.0889 19.7702 14.0889 19.7702 14.2626 19.4922C14.5305 19.3274 14.6907 19.3262 15 19.375C15.2173 19.5519 15.3671 19.7321 15.5273 19.961C15.8763 20.3488 16.3613 20.5833 16.8783 20.6436C17.4978 20.6651 18.0176 20.4562 18.4918 20.0529C18.6982 19.7876 18.6555 19.4661 18.6491 19.1438C18.6495 19.0658 18.6498 18.9878 18.6501 18.9073C18.6507 18.6497 18.6481 18.3921 18.6456 18.1345C18.6457 17.9554 18.646 17.7763 18.6466 17.5972C18.6476 17.1258 18.6462 16.6544 18.6439 16.1831C18.6403 15.4283 18.6391 14.6735 18.6407 13.9187C18.6407 13.6549 18.6387 13.3911 18.6365 13.1273C18.6365 12.9658 18.6365 12.8044 18.6366 12.643C18.6349 12.5327 18.6349 12.5327 18.6332 12.4202C18.6362 11.926 18.6362 11.926 18.8132 11.6729C19.0634 11.5115 19.24 11.5261 19.5312 11.5625C19.78 11.7 19.8307 11.7578 19.9218 12.0313C19.9284 12.204 19.9302 12.3769 19.9295 12.5498C19.9292 12.6512 19.929 12.7527 19.9287 12.8572C19.928 12.9644 19.9274 13.0716 19.9267 13.1787C19.9263 13.2868 19.926 13.3949 19.9256 13.503C19.9247 13.7676 19.9234 14.0323 19.9218 14.2969C21.1032 14.0093 22.1638 13.6763 22.8369 12.5781C22.9719 12.3361 23.0962 12.0899 23.2177 11.8408C23.3361 11.6081 23.3993 11.4874 23.5937 11.3281C23.934 11.2777 24.0866 11.2922 24.375 11.4844C24.5312 11.7188 24.5312 11.7188 24.5458 11.9971C24.3147 13.1336 23.4579 14.118 22.5222 14.7534C21.6714 15.2812 20.92 15.4562 19.9218 15.5469C19.9218 16.475 19.9218 17.4031 19.9218 18.3594C20.2312 18.3594 20.5406 18.3594 20.8593 18.3594C20.8566 18.2719 20.8539 18.1844 20.8511 18.0942C20.8489 17.9792 20.8468 17.8641 20.8447 17.749C20.8427 17.6914 20.8408 17.6337 20.8387 17.5743C20.8329 17.1432 20.8329 17.1432 20.9601 16.9807C21.1837 16.8038 21.4556 16.7371 21.7236 16.6504C22.1206 16.5176 22.4963 16.3807 22.8662 16.1817C23.3504 15.9318 23.3504 15.9318 23.6718 16.0156C23.844 16.1432 23.999 16.2793 24.1537 16.4276C24.3037 16.5765 24.3037 16.5765 24.5312 16.7188C24.9695 16.2805 25.4078 15.8422 25.8593 15.3906C25.7285 15.1289 25.6545 15.0189 25.4589 14.8242C25.2611 14.5923 25.1587 14.4135 25.1828 14.0952C25.2663 13.789 25.4145 13.5164 25.5641 13.2375C25.7663 12.8587 25.9001 12.4795 26.0141 12.0645C26.1127 11.8298 26.1778 11.7543 26.4062 11.6406C26.6165 11.6239 26.8029 11.6184 27.0117 11.626C27.1986 11.6308 27.3855 11.6357 27.5781 11.6406C27.5781 10.9446 27.5781 10.2485 27.5781 9.53127C27.4041 9.5345 27.23 9.53772 27.0507 9.54104C26.4414 9.55232 26.4414 9.55232 26.1718 9.37502C26.0839 9.22377 26.0839 9.22377 26.0156 9.03994C25.9898 8.97277 25.964 8.9056 25.9375 8.83639C25.9117 8.76599 25.8859 8.6956 25.8593 8.62307C25.8075 8.48523 25.7554 8.3475 25.7031 8.20986C25.6649 8.10944 25.6649 8.10944 25.626 8.007C25.5504 7.82127 25.4661 7.64469 25.3744 7.46646C25.2135 7.14612 25.1651 6.99292 25.2343 6.64065C25.36 6.46439 25.4955 6.3112 25.6463 6.15603C25.7957 6.00879 25.7957 6.00879 25.9375 5.78127C25.4992 5.34299 25.0609 4.90471 24.6093 4.45315C24.3322 4.59173 24.2123 4.68513 24.0039 4.89749C23.7726 5.09955 23.7036 5.15298 23.3886 5.18557C23.0244 5.1024 22.6952 4.91256 22.3669 4.73897C22.0291 4.56167 21.7062 4.44248 21.3348 4.35946C21.1063 4.27175 21.0036 4.18339 20.8593 3.9844C20.8366 3.77058 20.8294 3.5907 20.8398 3.37893C20.8412 3.32445 20.8426 3.26996 20.8441 3.21383C20.8477 3.08002 20.8533 2.94626 20.8593 2.81252C20.55 2.81252 20.2406 2.81252 19.9218 2.81252C19.9218 3.74065 19.9218 4.66877 19.9218 5.62502C20.257 5.65081 20.5921 5.67659 20.9375 5.70315C22.15 5.99369 23.2667 6.72078 23.9373 7.78475C24.6035 8.90649 24.6035 8.90649 24.4531 9.53127C24.3185 9.75558 24.2103 9.76814 23.955 9.84377C23.6718 9.84377 23.6718 9.84377 23.4716 9.71194C23.29 9.50029 23.1845 9.26001 23.0664 9.00881C22.6245 8.0925 21.9502 7.51066 21.0156 7.12893C20.7774 7.0483 20.5396 6.99493 20.2929 6.94705C20.2232 6.93343 20.1535 6.9198 20.0817 6.90577C20.029 6.89562 19.9762 6.88548 19.9218 6.87502C19.9235 6.95581 19.9251 7.0366 19.9268 7.11983C19.9325 7.42048 19.936 7.72113 19.939 8.02182C19.9406 8.15178 19.9427 8.28174 19.9454 8.41168C19.9492 8.59884 19.951 8.78592 19.9523 8.97311C19.954 9.0309 19.9556 9.0887 19.9572 9.14824C19.9574 9.43357 19.9305 9.59546 19.778 9.8396C19.5619 10.0451 19.4374 10.0781 19.1406 10.0781C18.7839 9.91171 18.7839 9.91171 18.6718 9.68752C18.6635 9.4588 18.6598 9.23186 18.6595 9.00309C18.6591 8.93219 18.6587 8.8613 18.6583 8.78825C18.6575 8.63393 18.6568 8.47962 18.6563 8.3253C18.6553 8.08099 18.6538 7.8367 18.6521 7.59239C18.6473 6.89765 18.6431 6.2029 18.6405 5.50814C18.6388 5.08346 18.6361 4.6588 18.6326 4.23413C18.6315 4.07228 18.6308 3.91044 18.6306 3.74859C18.6302 3.52192 18.6284 3.2953 18.6262 3.06864C18.6265 3.0019 18.6267 2.93517 18.627 2.8664C18.6216 2.47906 18.5746 2.21025 18.3593 1.87502C17.6643 1.35873 16.7812 1.18287 15.9326 1.28909C15.1702 1.44559 14.377 1.82415 13.9187 2.46737C13.553 3.026 13.3372 3.41773 13.3447 4.0967C13.3452 4.19651 13.3457 4.29631 13.3462 4.39913C13.358 4.6585 13.3883 4.90169 13.4375 5.15627C13.5357 5.12888 13.634 5.10149 13.7353 5.07327C14.4393 4.91988 15.1528 5.034 15.7812 5.39065C15.9744 5.6805 15.9675 5.82898 15.9375 6.1719C15.8544 6.35745 15.8544 6.35745 15.7031 6.4844C15.3613 6.58692 15.1424 6.56855 14.8193 6.44045C14.4089 6.28752 14.0794 6.3388 13.6718 6.4844C13.3691 6.67117 13.1969 6.86593 13.0468 7.18752C13.0047 7.36702 12.9692 7.54574 12.9394 7.72769C12.8814 7.92124 12.8135 8.00036 12.6562 8.12502C12.3778 8.20975 12.2419 8.22667 11.9726 8.11038C11.7846 7.95894 11.7233 7.87981 11.6406 7.65627C11.6477 7.04737 11.8442 6.60701 12.1713 6.1072C12.2853 5.93431 12.2853 5.93431 12.2656 5.69338C12.2398 5.61926 12.214 5.54514 12.1875 5.46877C12.041 4.96063 12.0137 4.51303 12.0312 3.9844C10.904 4.28787 9.96017 4.68915 9.33833 5.74099C9.01276 6.36563 8.88612 6.96039 8.80916 7.65719C8.7373 7.94052 8.68076 8.0403 8.43745 8.20315C8.21475 8.23042 8.01531 8.24257 7.79292 8.24221C7.27468 8.25584 6.92859 8.30631 6.48433 8.59377C6.43085 8.61643 6.37738 8.63909 6.32228 8.66244C6.1332 8.77251 6.09727 8.8619 6.01558 9.06252C5.98798 9.12083 5.96039 9.17914 5.93196 9.23922C5.68033 9.81796 5.65536 10.2634 5.75679 10.8789C5.78514 11.2191 5.7534 11.2988 5.54683 11.5625C5.3094 11.6956 5.3094 11.6956 5.02925 11.8164C4.22772 12.1872 3.61791 12.7911 3.2867 13.6191C3.12564 14.0831 3.03581 14.5117 3.03706 15.0049C3.03686 15.0848 3.03666 15.1646 3.03645 15.2469C3.04543 15.4388 3.06966 15.5983 3.12495 15.7813C3.21151 15.7417 3.21151 15.7417 3.29982 15.7013C3.83726 15.465 4.33975 15.3112 4.92183 15.2344C4.92505 15.1474 4.92827 15.0604 4.93159 14.9707C4.99764 14.4405 5.30223 14.0074 5.65913 13.6231C5.92932 13.4781 6.10411 13.4717 6.4062 13.5156C6.59663 13.6377 6.59663 13.6377 6.7187 13.8281C6.76281 14.0879 6.7825 14.2752 6.636 14.5044C6.58509 14.5685 6.58509 14.5685 6.53316 14.6338C6.277 14.9602 6.18672 15.29 6.17183 15.7031C6.24633 16.144 6.45114 16.4359 6.79683 16.7188C6.8923 16.7687 6.98836 16.8175 7.08491 16.8653C7.3437 17.0313 7.3437 17.0313 7.46577 17.2998C7.50166 17.5921 7.49371 17.7188 7.3437 17.9688C7.0544 18.1616 6.93203 18.1453 6.59938 18.0988C6.02486 17.9445 5.56789 17.5103 5.23433 17.0313C5.11346 16.8205 5.07808 16.7333 5.07808 16.4844C3.68894 16.903 2.55495 17.531 1.79683 18.8281C1.62677 19.1641 1.47548 19.506 1.3412 19.8578C1.26302 20.0593 1.20115 20.2093 1.03511 20.3516C0.771196 20.4102 0.573134 20.3789 0.312452 20.3125C0.161085 20.1856 0.161085 20.1856 0.0780774 20C0.00899458 18.9885 0.633905 18.0243 1.24995 17.2656C1.36851 17.1514 1.48879 17.0388 1.61128 16.9287C1.81954 16.7391 1.81954 16.7391 1.89906 16.4804C1.8797 16.3173 1.84269 16.1733 1.79683 16.0156C1.51453 14.5801 1.85276 13.2798 2.62965 12.0624C3.04414 11.4921 3.60193 11.0416 4.2187 10.7031C4.27026 10.7031 4.32183 10.7031 4.37495 10.7031C4.37133 10.6416 4.3677 10.5801 4.36397 10.5167C4.32895 9.45983 4.58518 8.59757 5.31245 7.81252C5.86442 7.32098 6.56546 6.93761 7.31929 6.93362C7.40469 6.94006 7.49009 6.94651 7.57808 6.95315C7.58412 6.87339 7.58412 6.87339 7.59028 6.79202C7.71994 5.68409 8.26284 4.74874 9.06245 3.9844C9.10274 3.9417 9.14302 3.899 9.18452 3.85501C9.76497 3.28665 10.7535 2.80965 11.5625 2.7344C11.6225 2.73601 11.6825 2.73762 11.7443 2.73928C11.9429 2.73928 12.0813 2.73209 12.2656 2.65627C12.4101 2.45923 12.5068 2.25602 12.6113 2.03524C13.1413 1.00828 14.1799 0.443735 15.2343 0.0781494C16.4987 -0.269489 17.9367 0.00377697 19.0234 0.689722ZM32.8906 5.31252C32.698 5.5362 32.6597 5.67925 32.6171 5.9717C32.6684 6.33701 32.7701 6.47664 33.0468 6.71877C33.3565 6.83054 33.5885 6.8321 33.8916 6.70413C34.1931 6.45425 34.2863 6.34484 34.331 5.94241C34.3205 5.70777 34.2911 5.61453 34.1748 5.40042C33.7407 5.022 33.3761 5.02311 32.8906 5.31252ZM37.1093 14.8438C36.9863 15.0898 37.004 15.275 37.0312 15.5469C37.1918 15.8266 37.2854 15.9662 37.5878 16.0758C37.8451 16.1223 38.0366 16.1408 38.2717 16.0156C38.4419 15.8779 38.5735 15.7436 38.6718 15.5469C38.7135 15.0927 38.7135 15.0927 38.5253 14.6924C38.253 14.428 38.044 14.4227 37.6766 14.4251C37.3964 14.4696 37.2759 14.6252 37.1093 14.8438ZM19.9218 21.6406C19.9218 22.5688 19.9218 23.4969 19.9218 24.4531C20.2505 24.5112 20.2505 24.5112 20.5859 24.5703C21.9556 24.8453 23.1062 25.4977 23.9013 26.6699C24.6368 27.931 24.866 29.2855 24.5312 30.7031C24.1137 32.068 23.36 33.0616 22.1093 33.75C21.4063 34.1108 20.6946 34.2544 19.9218 34.375C19.9142 34.4535 19.9065 34.5319 19.8986 34.6128C19.8011 35.5321 19.5848 36.3333 19.2187 37.1875C19.7601 37.1875 20.3015 37.1875 20.8593 37.1875C20.8757 36.8125 20.8757 36.8125 20.8896 36.4373C20.911 36.0488 20.911 36.0488 21.0393 35.888C21.2614 35.7092 21.5338 35.6432 21.8017 35.5567C22.1996 35.4241 22.5713 35.2873 22.9394 35.083C23.1756 34.9609 23.2915 34.921 23.5644 34.8975C23.9505 35.0476 24.1834 35.3176 24.4531 35.625C24.7077 35.5136 24.8751 35.3776 25.0695 35.1801C25.1249 35.1242 25.1803 35.0683 25.2374 35.0107C25.2944 34.9524 25.3514 34.8941 25.4101 34.834C25.4683 34.7751 25.5265 34.7162 25.5865 34.6555C25.7299 34.5103 25.8729 34.3647 26.0156 34.2188C25.9425 34.1324 25.8692 34.0462 25.7958 33.96C25.7551 33.9119 25.7143 33.8639 25.6723 33.8144C25.551 33.6711 25.551 33.6711 25.4162 33.5546C25.2624 33.381 25.277 33.208 25.2857 32.9846C25.3331 32.6795 25.4685 32.4248 25.6103 32.1533C25.6685 32.037 25.7264 31.9206 25.7839 31.8039C25.8112 31.7488 25.8384 31.6937 25.8664 31.6369C25.9533 31.4505 26.0168 31.2619 26.0742 31.0645C26.1796 30.7587 26.211 30.6984 26.4843 30.5469C26.8489 30.4929 27.2092 30.4859 27.5781 30.4688C27.5781 29.7727 27.5781 29.0766 27.5781 28.3594C27.203 28.3399 27.203 28.3399 26.8279 28.3221C26.546 28.3054 26.4116 28.2849 26.1718 28.125C26.0882 27.9167 26.0154 27.7132 25.9472 27.5C25.815 27.1022 25.6798 26.7269 25.4785 26.3574C25.3142 26.0366 25.2213 25.8332 25.3125 25.4688C25.527 25.1875 25.7639 24.9357 26.0156 24.6875C25.582 24.1575 25.0965 23.6832 24.6093 23.2031C24.2954 23.3386 24.129 23.5347 23.912 23.7921C23.6647 23.9663 23.5004 23.9415 23.2031 23.9063C22.9767 23.8252 22.7669 23.719 22.5537 23.6084C22.1199 23.3922 21.7085 23.2075 21.2332 23.0991C21.0937 23.0469 21.0937 23.0469 20.9375 22.8125C20.914 22.6103 20.8977 22.4148 20.8886 22.2119C20.8856 22.1571 20.8826 22.1023 20.8795 22.0458C20.8721 21.9108 20.8656 21.7757 20.8593 21.6406C20.55 21.6406 20.2406 21.6406 19.9218 21.6406ZM19.9218 25.7031C19.9218 28.1524 19.9218 30.6016 19.9218 33.125C21.1235 33.0049 21.9954 32.5879 22.7685 31.6519C23.3465 30.8587 23.6057 29.8764 23.4814 28.9011C23.28 27.851 22.7676 26.9448 21.875 26.3281C21.2505 25.9591 20.6521 25.7031 19.9218 25.7031ZM32.749 33.5742C32.613 33.8318 32.6215 34.0094 32.6562 34.2969C32.8066 34.6158 32.9074 34.7367 33.2275 34.8877C33.5835 34.93 33.754 34.8654 34.0625 34.6875C34.2899 34.4894 34.2966 34.3769 34.3359 34.0723C34.324 33.8081 34.282 33.7245 34.1406 33.4815C33.8874 33.2652 33.7558 33.2068 33.4317 33.1897C33.1286 33.2168 32.96 33.3705 32.749 33.5742Z" fill="current"/>
<path d="M16.3281 25.8594C16.5527 26.0254 16.5527 26.0254 16.7188 26.25C16.7811 26.8204 16.4901 27.2061 16.1719 27.6563C15.5167 28.452 14.6346 29.1303 13.5938 29.2969C13.747 30.231 13.9438 31.1412 14.6875 31.7969C14.9075 31.9467 15.1304 32.0861 15.3601 32.2205C15.5469 32.3438 15.5469 32.3438 15.7031 32.5781C15.7373 32.8027 15.7373 32.8027 15.7031 33.0469C15.5212 33.293 15.4011 33.4148 15.1025 33.4912C14.2657 33.3175 13.5206 32.6164 13.0615 31.9238C12.6687 31.2676 12.4077 30.6295 12.417 29.8584C12.4177 29.7822 12.4184 29.7059 12.4191 29.6274C12.42 29.5699 12.4209 29.5124 12.4219 29.4531C12.3536 29.4572 12.3536 29.4572 12.2839 29.4614C11.0545 29.502 10.0043 29.0098 9.08569 28.2159C8.8633 28.0064 8.71595 27.8592 8.59375 27.5781C8.59841 27.303 8.61657 27.1186 8.76465 26.8848C8.97622 26.7534 9.12539 26.7236 9.375 26.7188C9.81751 26.9525 9.81751 26.9525 9.92188 27.2656C10.0638 27.3489 10.0638 27.3489 10.2344 27.4219C10.3551 27.4979 10.4755 27.5744 10.5957 27.6514C11.4194 28.1418 12.2803 28.2687 13.2275 28.071C14.3268 27.7359 15.0116 27.0327 15.6073 26.0742C15.7954 25.8058 16.0208 25.8232 16.3281 25.8594Z" fill="current"/>
<path d="M39.0624 22.9688C39.4776 23.2989 39.8159 23.6886 39.9218 24.2188C39.9842 24.9267 39.9598 25.5076 39.5311 26.0938C39.1521 26.5179 38.7363 26.7663 38.1698 26.8244C37.5283 26.8489 37.0005 26.8124 36.4843 26.4063C36.2123 26.1214 35.9846 25.8447 35.8593 25.4688C35.8151 25.4684 35.771 25.4679 35.7255 25.4675C35.2654 25.4625 34.8054 25.4559 34.3453 25.4483C34.1737 25.4457 34.002 25.4436 33.8304 25.4418C33.5835 25.4392 33.3367 25.4351 33.0898 25.4307C33.0132 25.4302 32.9366 25.4297 32.8577 25.4292C32.1835 25.4147 32.1835 25.4147 31.8749 25.1563C31.7541 24.9148 31.7738 24.7193 31.7968 24.4532C31.9014 24.2812 31.9014 24.2812 32.1093 24.1407C32.393 24.0968 32.6736 24.1045 32.9601 24.1102C33.0843 24.1109 33.0843 24.1109 33.211 24.1115C33.4753 24.1133 33.7395 24.1172 34.0038 24.1212C34.183 24.1228 34.3623 24.1242 34.5415 24.1255C34.9808 24.1289 35.42 24.1341 35.8593 24.1407C35.8827 24.0669 35.9061 23.9931 35.9302 23.9171C36.09 23.458 36.4343 23.1032 36.8505 22.8565C37.5749 22.5148 38.371 22.566 39.0624 22.9688ZM37.1239 24.2774C36.9898 24.5315 37.0013 24.7169 37.0311 25.0001C37.1602 25.2766 37.2433 25.3759 37.4999 25.547C37.8587 25.6048 38.1268 25.5946 38.4374 25.4005C38.6748 25.1482 38.7024 24.9653 38.6998 24.6177C38.6502 24.327 38.489 24.1874 38.2811 23.9845C37.8302 23.759 37.4578 23.9551 37.1239 24.2774Z" fill="current"/>
<path d="M10.9374 16.25C11.1971 16.4128 11.3103 16.5145 11.4174 16.8048C11.6482 18.0221 11.5962 19.1107 11.0155 20.2343C10.9866 20.2921 10.9577 20.3499 10.9279 20.4095C10.9053 20.4548 10.8826 20.5001 10.8593 20.5468C10.9039 20.5671 10.9485 20.5873 10.9945 20.6082C11.7501 21.0127 12.2769 21.7592 12.5731 22.5488C12.6716 22.8938 12.7306 23.2386 12.6562 23.5937C12.495 23.7988 12.495 23.7988 12.2655 23.9062C11.9999 23.9016 11.8083 23.8975 11.5938 23.7313C11.4574 23.56 11.4078 23.4022 11.3427 23.1933C11.087 22.463 10.7282 21.9833 10.078 21.5625C9.8437 21.6745 9.62815 21.804 9.40908 21.9433C8.63785 22.4099 7.88284 22.5923 6.99209 22.6025C6.89344 22.6059 6.89344 22.6059 6.79281 22.6094C6.47246 22.6126 6.29343 22.6033 6.01095 22.4398C5.85146 22.2566 5.80742 22.1913 5.81533 21.9531C5.81523 21.9015 5.81513 21.85 5.81503 21.7968C5.88247 21.5587 5.96987 21.4722 6.17178 21.3281C6.40076 21.3006 6.60707 21.2888 6.83584 21.289C7.78183 21.2611 8.57971 21.0405 9.29678 20.3906C9.98157 19.6085 10.2512 18.7679 10.2343 17.7343C10.2039 17.5444 10.1618 17.3646 10.1116 17.1792C10.0599 16.9513 10.0844 16.7828 10.1562 16.5625C10.3802 16.2471 10.5574 16.1879 10.9374 16.25Z" fill="current"/>
<path d="M15.0782 9.60941C15.4698 9.92256 15.5404 10.3053 15.6251 10.7813C15.738 11.8015 15.4105 12.6789 14.8438 13.5157C14.9131 13.5898 14.9824 13.6639 15.0538 13.7403C15.6166 14.3976 15.8879 15.1758 15.8838 16.0352C15.8851 16.0904 15.8864 16.1456 15.8877 16.2024C15.888 16.5995 15.888 16.5995 15.7548 16.7914C15.5539 16.9209 15.3939 16.9437 15.1563 16.9532C14.8575 16.8241 14.7284 16.7053 14.6094 16.4063C14.5983 16.2764 14.5922 16.146 14.5899 16.0157C14.5374 15.3496 14.2541 14.755 13.7647 14.2969C13.0676 13.7609 12.4403 13.667 11.5626 13.75C11.4057 13.8002 11.2493 13.852 11.0938 13.9063C10.621 13.8903 10.621 13.8903 10.3956 13.7012C10.2784 13.4393 10.2771 13.2524 10.3126 12.9688C10.5041 12.6553 10.8068 12.5562 11.1481 12.464C12.0118 12.3231 12.927 12.3455 13.7501 12.6563C14.123 12.2576 14.3055 11.7849 14.3213 11.2403C14.3075 10.9378 14.3075 10.9378 14.2139 10.6592C14.1178 10.3069 14.1236 10.0174 14.3018 9.69242C14.5462 9.55841 14.8115 9.54441 15.0782 9.60941Z" fill="current"/>
</g>
<defs>
<clipPath id="clip0_135_49">
<rect width="40" height="40" fill="white"/>
</clipPath>
</defs>
</svg>
