<svg width="40" height="40" viewBox="0 0 40 40" fill="none" xmlns="http://www.w3.org/2000/svg">
<path d="M10.6414 2.47339C10.7847 2.47346 10.928 2.47342 11.0713 2.47329C11.4583 2.47322 11.8453 2.47459 12.2323 2.47623C12.6375 2.4777 13.0427 2.47784 13.4478 2.47811C14.2142 2.47884 14.9806 2.48076 15.747 2.48312C16.6199 2.48574 17.4928 2.48703 18.3657 2.4882C20.1605 2.49065 21.9553 2.49477 23.7501 2.5C23.7507 2.57604 23.7513 2.65209 23.752 2.73044C23.758 3.45099 23.7649 4.17153 23.7725 4.89207C23.7764 5.26241 23.78 5.63274 23.783 6.00309C23.7859 6.36124 23.7895 6.71937 23.7936 7.0775C23.7951 7.21338 23.7963 7.34926 23.7972 7.48514C23.8077 8.98698 23.8991 10.2739 24.9906 11.4017C25.8854 12.2386 26.9716 12.4284 28.1536 12.4379C28.2147 12.4387 28.2757 12.4395 28.3386 12.4403C28.5377 12.4427 28.7368 12.4446 28.9359 12.4466C29.075 12.4482 29.2141 12.4498 29.3533 12.4515C29.7174 12.4558 30.0815 12.4597 30.4456 12.4635C30.818 12.4674 31.1903 12.4717 31.5627 12.476C32.2918 12.4844 33.0209 12.4923 33.75 12.5C33.7572 15.2907 33.7627 18.0814 33.766 20.8721C33.7664 21.2018 33.7668 21.5315 33.7672 21.8613C33.7673 21.9269 33.7674 21.9925 33.7675 22.0602C33.7688 23.122 33.7713 24.1838 33.7742 25.2456C33.7771 26.3357 33.7788 27.4258 33.7795 28.5159C33.7799 29.1882 33.7812 29.8604 33.7838 30.5326C33.7854 30.9941 33.7859 31.4556 33.7855 31.917C33.7853 32.183 33.7858 32.4489 33.7873 32.7148C33.7889 33.0039 33.7885 33.293 33.7876 33.5821C33.7885 33.6651 33.7894 33.7481 33.7904 33.8336C33.7818 34.9195 33.3614 35.7567 32.6319 36.543C31.8416 37.2909 30.9391 37.5365 29.8751 37.5303C29.787 37.5307 29.6989 37.5311 29.6082 37.5316C29.3148 37.5327 29.0215 37.5321 28.7281 37.5316C28.5171 37.532 28.3061 37.5325 28.095 37.5332C27.5823 37.5345 27.0696 37.5346 26.5569 37.5342C26.1399 37.5339 25.723 37.534 25.306 37.5344C25.2465 37.5345 25.1871 37.5345 25.1258 37.5346C25.005 37.5347 24.8841 37.5348 24.7633 37.5349C23.6316 37.536 22.4998 37.5356 21.368 37.5347C20.3341 37.5339 19.3001 37.5349 18.2662 37.5368C17.2029 37.5387 16.1396 37.5394 15.0763 37.5389C14.4799 37.5387 13.8836 37.5388 13.2873 37.5402C12.7797 37.5414 12.2721 37.5414 11.7644 37.54C11.5058 37.5394 11.2471 37.5394 10.9884 37.5404C10.7072 37.5414 10.4261 37.5405 10.1449 37.5392C10.0642 37.5399 9.98361 37.5407 9.90053 37.5414C8.82273 37.5306 7.98697 37.1054 7.20708 36.3818C6.36667 35.4939 6.21451 34.5217 6.21976 33.3403C6.21944 33.2204 6.21901 33.1005 6.21849 32.9806C6.21736 32.6528 6.21769 32.3251 6.21827 31.9973C6.21864 31.6431 6.21766 31.289 6.21686 30.9348C6.21552 30.2416 6.21545 29.5485 6.21586 28.8553C6.21618 28.2917 6.21606 27.7282 6.21565 27.1646C6.21559 27.0843 6.21553 27.004 6.21547 26.9213C6.21535 26.7582 6.21523 26.5951 6.21511 26.432C6.21404 24.9032 6.21446 23.3744 6.21536 21.8457C6.21613 20.448 6.21512 19.0503 6.21325 17.6526C6.21135 16.2164 6.2106 14.7802 6.21112 13.344C6.21139 12.538 6.21121 11.7321 6.20985 10.9262C6.20869 10.2402 6.20865 9.55415 6.21001 8.8681C6.21067 8.5183 6.21084 8.16851 6.20964 7.81871C6.20856 7.49804 6.20894 7.1774 6.21044 6.85673C6.21074 6.74118 6.21051 6.62562 6.20969 6.51008C6.20153 5.26785 6.52158 4.36955 7.36821 3.45703C8.32715 2.54946 9.38565 2.46524 10.6414 2.47339ZM13.4058 10.083C12.6369 11.0178 12.4637 12.0255 12.5782 13.2031C12.7533 14.131 13.3246 14.9641 14.0626 15.5469C15.0598 16.1452 16.0865 16.341 17.2284 16.1182C18.1262 15.8412 18.9468 15.2621 19.4397 14.4531C19.9512 13.46 20.1299 12.37 19.795 11.2842C19.398 10.2799 18.7067 9.54019 17.7338 9.07745C16.1665 8.4534 14.5576 8.86597 13.4058 10.083ZM24.1716 16.5978C23.852 16.9666 23.8004 17.219 23.8065 17.6923C23.8386 17.9863 23.944 18.142 24.1407 18.3594C24.7301 18.8234 25.3415 18.7668 26.059 18.7688C26.2289 18.7695 26.3988 18.7719 26.5687 18.7744C27.511 18.8036 27.511 18.8036 28.3285 18.4022C28.6481 18.0334 28.6997 17.781 28.6936 17.3077C28.6615 17.0137 28.5561 16.858 28.3594 16.6406C27.77 16.1766 27.1586 16.2332 26.4411 16.2312C26.2712 16.2305 26.1013 16.228 25.9314 16.2256C24.9891 16.1964 24.9891 16.1964 24.1716 16.5978ZM12.168 18.8525C11.2998 19.8677 11.2348 21.0532 11.2313 22.3325C11.2305 22.4997 11.2281 22.6667 11.2256 22.8339C11.2041 23.7588 11.2041 23.7588 11.5841 24.5758C12.0543 25.0119 12.636 25.0232 13.2395 25.0215C13.3116 25.0219 13.3837 25.0223 13.4579 25.0227C13.6951 25.0237 13.9322 25.0237 14.1694 25.0235C14.335 25.0238 14.5007 25.0241 14.6664 25.0245C15.0133 25.0251 15.3602 25.0251 15.707 25.0247C16.1504 25.0242 16.5937 25.0255 17.037 25.0273C17.3791 25.0285 17.7212 25.0286 18.0633 25.0283C18.2267 25.0284 18.3901 25.0288 18.5535 25.0296C18.7825 25.0305 19.0114 25.03 19.2404 25.0291C19.3072 25.0297 19.3739 25.0303 19.4427 25.0309C19.9206 25.0268 20.4417 24.9747 20.8278 24.666C21.2132 24.2427 21.2698 23.7363 21.2708 23.1854C21.271 23.107 21.271 23.107 21.2713 23.0269C21.2714 22.9167 21.2711 22.8066 21.2704 22.6964C21.2696 22.5313 21.2704 22.3663 21.2714 22.2012C21.2729 20.7793 21.0858 19.6267 20.0702 18.5809C19.023 17.5929 17.8143 17.4854 16.4347 17.4855C16.271 17.4853 16.1073 17.4839 15.9437 17.4824C14.4187 17.476 13.2403 17.716 12.168 18.8525ZM24.1716 22.8478C23.852 23.2166 23.8004 23.469 23.8065 23.9423C23.8386 24.2363 23.944 24.392 24.1407 24.6094C24.7301 25.0734 25.3415 25.0168 26.059 25.0188C26.2289 25.0195 26.3988 25.0219 26.5687 25.0244C27.511 25.0536 27.511 25.0536 28.3285 24.6522C28.6481 24.2834 28.6997 24.031 28.6936 23.5577C28.6615 23.2637 28.5561 23.108 28.3594 22.8906C27.77 22.4266 27.1586 22.4832 26.4411 22.4812C26.2712 22.4805 26.1013 22.478 25.9314 22.4756C24.9891 22.4464 24.9891 22.4464 24.1716 22.8478ZM11.5626 29.2236C11.2948 29.6169 11.2768 29.9202 11.3282 30.3906C11.5116 30.7716 11.7413 30.969 12.1094 31.1719C12.4413 31.2618 12.7704 31.2614 13.1118 31.261C13.1728 31.2612 13.2339 31.2614 13.2969 31.2617C13.5013 31.2623 13.7058 31.2625 13.9102 31.2626C14.0569 31.2629 14.2036 31.2633 14.3503 31.2638C14.7487 31.2648 15.1471 31.2653 15.5454 31.2656C15.7944 31.2659 16.0435 31.2662 16.2925 31.2665C17.0719 31.2676 17.8513 31.2684 18.6307 31.2687C19.5298 31.269 20.4289 31.2704 21.3281 31.2726C22.0235 31.2743 22.7189 31.2751 23.4143 31.2752C23.8294 31.2753 24.2446 31.2758 24.6597 31.2772C25.0504 31.2785 25.441 31.2786 25.8316 31.2779C25.9747 31.2779 26.1178 31.2782 26.2609 31.279C27.3632 31.3357 27.3632 31.3357 28.3278 30.9022C28.6486 30.5344 28.6997 30.2808 28.6936 29.8077C28.6615 29.5137 28.5561 29.358 28.3594 29.1406C27.8819 28.7647 27.4788 28.7383 26.8883 28.739C26.8273 28.7388 26.7662 28.7386 26.7032 28.7383C26.4988 28.7376 26.2944 28.7375 26.0899 28.7374C25.9432 28.737 25.7965 28.7367 25.6498 28.7362C25.2514 28.7352 24.853 28.7347 24.4547 28.7344C24.2057 28.7341 23.9566 28.7338 23.7076 28.7335C22.9282 28.7324 22.1488 28.7316 21.3694 28.7313C20.4703 28.731 19.5712 28.7296 18.672 28.7273C17.9766 28.7257 17.2812 28.7249 16.5858 28.7248C16.1707 28.7247 15.7555 28.7242 15.3404 28.7228C14.9497 28.7215 14.5591 28.7214 14.1685 28.7221C14.0254 28.7221 13.8823 28.7218 13.7392 28.721C12.547 28.6631 12.547 28.6631 11.5626 29.2236Z" fill="#00A66E"/>
<path d="M26.25 3.20312C26.6647 3.54964 27.0512 3.91503 27.4326 4.29758C27.4937 4.35848 27.5547 4.41939 27.6176 4.48213C27.8177 4.68193 28.0176 4.882 28.2174 5.08209C28.3568 5.22137 28.4961 5.36064 28.6355 5.4999C28.9266 5.79088 29.2175 6.08201 29.5084 6.37323C29.8449 6.71022 30.1818 7.04692 30.5188 7.38348C30.8433 7.70767 31.1677 8.03208 31.492 8.35658C31.63 8.4946 31.768 8.63256 31.9061 8.77047C32.0982 8.96236 32.29 9.1545 32.4818 9.34671C32.5394 9.40414 32.5969 9.46156 32.6563 9.52073C32.7081 9.57275 32.7599 9.62477 32.8132 9.67836C32.8586 9.72377 32.904 9.76918 32.9508 9.81596C33.0468 9.92188 33.0468 9.92188 33.0468 10C32.2706 10.0072 31.4944 10.0128 30.7181 10.0162C30.3576 10.0178 29.9972 10.02 29.6367 10.0236C29.2887 10.027 28.9407 10.0288 28.5927 10.0296C28.4601 10.0302 28.3275 10.0314 28.1948 10.033C28.0087 10.0353 27.8227 10.0356 27.6366 10.0355C27.5821 10.0366 27.5275 10.0377 27.4713 10.0389C27.0791 10.0356 26.8598 9.93976 26.5625 9.6875C26.2664 9.33859 26.2053 9.05869 26.2145 8.61332C26.2144 8.55458 26.2144 8.49583 26.2143 8.43531C26.2146 8.24252 26.217 8.04983 26.2194 7.85706C26.22 7.72285 26.2205 7.58865 26.2208 7.45445C26.222 7.10226 26.225 6.75012 26.2285 6.39795C26.2317 6.03817 26.2331 5.67839 26.2347 5.3186C26.238 4.61343 26.2434 3.90828 26.25 3.20312Z" fill="#00A66E"/>
</svg>
