<svg width="40" height="40" viewBox="0 0 40 40" fill="none" xmlns="http://www.w3.org/2000/svg">
<path d="M20.4687 2.50012C20.8326 2.66906 21.0912 2.90981 21.25 3.28137C21.296 3.5819 21.2927 3.87947 21.2905 4.18302C21.2914 4.32001 21.2914 4.32001 21.2923 4.45976C21.2936 4.71258 21.2935 4.96535 21.2929 5.21817C21.2925 5.49105 21.2939 5.76392 21.2951 6.03679C21.2969 6.50934 21.2976 6.98188 21.2975 7.45443C21.2974 8.13765 21.299 8.82087 21.301 9.50409C21.3042 10.6126 21.306 11.7211 21.307 12.8296C21.3079 13.9064 21.3095 14.9831 21.3119 16.0598C21.3121 16.1594 21.3121 16.1594 21.3124 16.261C21.3131 16.594 21.3139 16.9271 21.3147 17.2601C21.3212 20.0224 21.3254 22.7847 21.3281 25.547C21.3621 25.5129 21.396 25.4788 21.431 25.4437C22.2567 24.6146 23.0828 23.7858 23.9094 22.9576C24.3092 22.5571 24.7087 22.1564 25.108 21.7553C25.456 21.4058 25.8042 21.0565 26.1528 20.7076C26.3374 20.5228 26.5217 20.3379 26.7059 20.1527C26.9115 19.946 27.1175 19.7398 27.3237 19.5337C27.3847 19.4722 27.4456 19.4106 27.5084 19.3472C27.5647 19.2911 27.6211 19.235 27.6791 19.1773C27.7277 19.1284 27.7764 19.0796 27.8266 19.0293C28.1899 18.7152 28.5255 18.7166 28.9911 18.7257C29.4053 18.7701 29.5969 18.9672 29.873 19.2579C30.0565 19.6531 30.0759 20.0405 30 20.4689C29.8031 20.795 29.5826 21.0621 29.3139 21.331C29.2775 21.3677 29.2411 21.4044 29.2036 21.4421C29.0825 21.5638 28.961 21.6848 28.8394 21.8059C28.7521 21.8934 28.6648 21.981 28.5776 22.0686C28.3413 22.3056 28.1045 22.5421 27.8677 22.7784C27.6196 23.0261 27.372 23.2741 27.1243 23.522C26.7084 23.9382 26.2923 24.354 25.8759 24.7696C25.3946 25.2501 24.9138 25.7311 24.4333 26.2125C24.0205 26.626 23.6074 27.0392 23.194 27.4522C22.9472 27.6987 22.7005 27.9453 22.4541 28.1923C22.2226 28.4242 21.9907 28.6558 21.7585 28.8871C21.6733 28.9721 21.5883 29.0572 21.5034 29.1424C21.3876 29.2587 21.2713 29.3745 21.1548 29.4901C21.0899 29.555 21.0249 29.62 20.9579 29.6869C20.6481 29.9622 20.4219 30.0242 20.0098 30.0294C19.931 30.0316 19.8523 30.0338 19.7711 30.0361C19.3086 29.9667 18.9901 29.6348 18.6691 29.314C18.6324 29.2776 18.5957 29.2412 18.558 29.2037C18.4363 29.0827 18.3153 28.9611 18.1942 28.8395C18.1067 28.7522 18.0191 28.6649 17.9315 28.5777C17.6945 28.3414 17.4581 28.1047 17.2217 27.8678C16.974 27.6198 16.726 27.3721 16.4781 27.1244C16.0619 26.7086 15.6462 26.2924 15.2306 25.876C14.7501 25.3947 14.269 24.9139 13.7876 24.4334C13.3741 24.0206 12.9609 23.6075 12.548 23.1941C12.3014 22.9473 12.0548 22.7007 11.8078 22.4543C11.5759 22.2227 11.3443 21.9908 11.113 21.7586C11.028 21.6735 10.9429 21.5884 10.8577 21.5035C10.7414 21.3877 10.6257 21.2714 10.51 21.155C10.4451 21.09 10.3801 21.025 10.3133 20.958C9.97393 20.5762 9.96588 20.2575 9.97558 19.759C10.02 19.3448 10.2171 19.1533 10.5078 18.8771C10.903 18.6936 11.2904 18.6743 11.7187 18.7501C12.1541 18.9995 12.4847 19.3387 12.836 19.6933C12.8993 19.7566 12.9626 19.8199 13.0278 19.8851C13.2362 20.0936 13.4439 20.3026 13.6517 20.5116C13.7964 20.6566 13.9411 20.8015 14.0859 20.9464C14.4273 21.2883 14.7684 21.6307 15.1093 21.9731C15.4976 22.3632 15.8864 22.7529 16.2752 23.1425C17.0746 23.9435 17.8734 24.7451 18.6719 25.547C18.6719 25.4766 18.6719 25.4766 18.672 25.4048C18.6748 22.6236 18.6792 19.8425 18.6858 17.0614C18.6866 16.7275 18.6873 16.3937 18.6881 16.0598C18.6883 15.9601 18.6883 15.9601 18.6885 15.8584C18.691 14.7819 18.6923 13.7054 18.6932 12.6289C18.6942 11.5245 18.6963 10.4201 18.6996 9.31566C18.7015 8.63405 18.7026 7.95245 18.7025 7.27084C18.7025 6.80358 18.7036 6.33633 18.7056 5.86907C18.7068 5.59939 18.7074 5.32974 18.7067 5.06006C18.7062 4.76769 18.7076 4.47539 18.7095 4.18302C18.7088 4.09776 18.7082 4.01249 18.7076 3.92463C18.713 3.44999 18.7462 3.17412 19.0625 2.81262C19.4743 2.42138 19.9303 2.42763 20.4687 2.50012Z" fill="current"/>
<path d="M4.21884 28.7501C4.64479 28.9479 4.72478 29.1184 5.00009 29.5314C5.00009 31.3361 5.00009 33.1407 5.00009 35.0001C14.9001 35.0001 24.8001 35.0001 35.0001 35.0001C35.0001 33.1954 35.0001 31.3907 35.0001 29.5314C35.4042 28.9252 35.4042 28.9252 35.7813 28.7501C36.2188 28.6912 36.5888 28.6897 36.9923 28.8771C37.2917 29.1615 37.4813 29.3975 37.5398 29.8138C37.5416 29.9197 37.5418 30.0257 37.5405 30.1316C37.5413 30.2189 37.5413 30.2189 37.5422 30.3081C37.5436 30.4996 37.5427 30.6911 37.5416 30.8827C37.5418 31.0168 37.5421 31.1508 37.5425 31.2849C37.543 31.5657 37.5423 31.8465 37.5408 32.1273C37.5391 32.4855 37.5401 32.8435 37.5419 33.2017C37.5431 33.4786 37.5427 33.7556 37.5419 34.0325C37.5417 34.1644 37.5419 34.2964 37.5427 34.4283C37.5466 35.3358 37.5023 36.1373 36.8519 36.8336C36.3327 37.3004 35.7811 37.5194 35.0813 37.5202C35.0017 37.5206 35.0017 37.5206 34.9204 37.521C34.7427 37.5218 34.5649 37.5214 34.3871 37.521C34.2583 37.5213 34.1295 37.5217 34.0007 37.5221C33.6468 37.523 33.2929 37.523 32.939 37.5228C32.5573 37.5228 32.1756 37.5237 31.794 37.5244C31.0462 37.5257 30.2984 37.5261 29.5507 37.5262C28.9429 37.5263 28.3351 37.5266 27.7273 37.5271C26.0043 37.5285 24.2814 37.5292 22.5584 37.5291C22.4191 37.5291 22.4191 37.5291 22.2769 37.5291C22.1839 37.5291 22.0909 37.5291 21.9951 37.529C20.4876 37.529 18.9801 37.5305 17.4725 37.5327C15.9248 37.5349 14.3772 37.536 12.8295 37.5359C11.9605 37.5358 11.0915 37.5363 10.2225 37.5379C9.48263 37.5394 8.74279 37.5397 8.00294 37.5386C7.62548 37.5381 7.24804 37.5381 6.87058 37.5395C6.5249 37.5407 6.17925 37.5405 5.83357 37.5391C5.70865 37.5389 5.58374 37.5392 5.45882 37.54C4.80725 37.5443 4.24319 37.5352 3.67196 37.1876C3.60872 37.151 3.54548 37.1143 3.48031 37.0765C2.95881 36.6911 2.67757 36.2478 2.50009 35.6251C2.48507 35.4206 2.47713 35.2243 2.47739 35.02C2.47687 34.9612 2.47634 34.9024 2.4758 34.8419C2.47433 34.6489 2.47401 34.4559 2.47384 34.2628C2.47334 34.128 2.47282 33.9931 2.47227 33.8583C2.47133 33.5762 2.47104 33.2941 2.47114 33.012C2.47115 32.651 2.46902 32.2901 2.46633 31.9292C2.46459 31.6509 2.46427 31.3726 2.46436 31.0943C2.46417 30.9613 2.46348 30.8282 2.46227 30.6951C2.46074 30.5089 2.46119 30.3228 2.46213 30.1365C2.46126 30.082 2.46038 30.0274 2.45947 29.9712C2.46446 29.5814 2.57174 29.3645 2.81259 29.0626C3.22441 28.6714 3.68041 28.6776 4.21884 28.7501Z" fill="current"/>
</svg>
