<svg width="40" height="40" viewBox="0 0 40 40" fill="none" xmlns="http://www.w3.org/2000/svg">
<path d="M16.1271 3.87466C16.2201 3.87413 16.313 3.87359 16.4088 3.87304C16.6613 3.87186 16.9138 3.87173 17.1662 3.87218C17.3782 3.87242 17.5902 3.87194 17.8022 3.87147C18.3029 3.87038 18.8036 3.87049 19.3043 3.87138C19.8182 3.87228 20.332 3.87118 20.8459 3.86909C21.2896 3.86735 21.7333 3.86684 22.177 3.8673C22.4409 3.86756 22.7048 3.86738 22.9686 3.86603C23.2634 3.86486 23.5581 3.8657 23.8529 3.86703C23.9385 3.86628 24.0241 3.86552 24.1123 3.86475C24.9534 3.87266 25.7613 4.05225 26.4115 4.61058C26.9393 5.15215 27.2925 5.81727 27.2923 6.58144C27.2911 6.63803 27.2899 6.69461 27.2886 6.75291C27.2883 6.81272 27.2879 6.87253 27.2876 6.93415C27.2863 7.12279 27.2834 7.31136 27.2804 7.49998C27.2792 7.62887 27.2781 7.75775 27.2772 7.88664C27.2746 8.20049 27.2706 8.51428 27.2657 8.82811C27.3121 8.82789 27.3585 8.82767 27.4063 8.82745C28.5377 8.82226 29.6692 8.81839 30.8006 8.81596C31.3478 8.81476 31.895 8.81311 32.4421 8.81042C32.9705 8.80783 33.4988 8.80648 34.0271 8.80587C34.2284 8.80544 34.4297 8.80459 34.6309 8.80333C34.9135 8.80162 35.196 8.80139 35.4786 8.8015C35.5612 8.80066 35.6439 8.79981 35.7291 8.79894C36.6636 8.80281 37.4099 9.06938 38.1007 9.70213C38.5993 10.2236 38.8372 10.8566 38.8387 11.5714C38.8391 11.6505 38.8394 11.7297 38.8398 11.8113C38.8397 11.9409 38.8397 11.9409 38.8397 12.0732C38.84 12.1654 38.8403 12.2577 38.8406 12.3527C38.8413 12.6085 38.8417 12.8642 38.8419 13.12C38.8422 13.396 38.8429 13.672 38.8436 13.948C38.8452 14.6143 38.8459 15.2806 38.8466 15.9469C38.847 16.2609 38.8474 16.575 38.8478 16.889C38.8491 17.9331 38.8503 18.9773 38.8508 20.0214C38.851 20.2923 38.8511 20.5631 38.8513 20.8339C38.8513 20.9012 38.8514 20.9685 38.8514 21.0379C38.852 22.128 38.854 23.2181 38.8566 24.3082C38.8591 25.4281 38.8606 26.548 38.8608 27.6679C38.861 28.2964 38.8617 28.9248 38.8637 29.5533C38.8654 30.0886 38.866 30.6239 38.8652 31.1592C38.8649 31.4321 38.865 31.705 38.8665 31.9779C38.8679 32.2744 38.8674 32.5708 38.8663 32.8673C38.8676 32.9953 38.8676 32.9953 38.8689 33.126C38.8616 34.0091 38.6124 34.6661 37.9966 35.3C37.1406 36.0851 36.181 36.1283 35.072 36.1235C34.9365 36.1238 34.801 36.1241 34.6656 36.1246C34.2947 36.1256 33.9239 36.1251 33.5531 36.1244C33.1526 36.1238 32.7521 36.1247 32.3516 36.1253C31.5676 36.1263 30.7836 36.1261 29.9996 36.1254C29.3624 36.1249 28.7252 36.1248 28.0879 36.1251C27.9518 36.1251 27.9518 36.1251 27.813 36.1252C27.6286 36.1253 27.4443 36.1254 27.26 36.1254C25.5319 36.1261 23.8039 36.1253 22.0759 36.1241C20.5936 36.123 19.1112 36.1232 17.6289 36.1243C15.907 36.1255 14.1851 36.126 12.4632 36.1253C12.2796 36.1252 12.0959 36.1252 11.9123 36.1251C11.8219 36.1251 11.7316 36.125 11.6385 36.125C11.0021 36.1248 10.3657 36.1251 9.72931 36.1257C8.95365 36.1263 8.17799 36.1262 7.40233 36.1249C7.00667 36.1243 6.61101 36.124 6.21535 36.1248C5.85296 36.1255 5.49058 36.1251 5.12819 36.1239C4.99729 36.1236 4.86639 36.1238 4.7355 36.1243C3.62539 36.1288 2.74315 35.9924 1.89951 35.2197C1.43112 34.731 1.16267 34.1124 1.16171 33.438C1.16141 33.3589 1.16111 33.2799 1.1608 33.1984C1.16087 33.1117 1.16093 33.025 1.161 32.9357C1.16077 32.8434 1.16054 32.7512 1.1603 32.6562C1.15974 32.4001 1.15953 32.144 1.15947 31.8879C1.15933 31.6117 1.15874 31.3355 1.15821 31.0593C1.15715 30.4553 1.15668 29.8512 1.15633 29.2472C1.15612 28.8699 1.15579 28.4927 1.15544 28.1154C1.15448 27.0706 1.15368 26.0257 1.15342 24.9809C1.1534 24.914 1.15338 24.8472 1.15336 24.7783C1.15335 24.7112 1.15333 24.6442 1.15331 24.5751C1.15328 24.4393 1.15324 24.3035 1.15321 24.1677C1.15319 24.1003 1.15317 24.0329 1.15315 23.9635C1.15285 22.8723 1.15148 21.7811 1.14966 20.6899C1.14781 19.5693 1.14684 18.4486 1.14675 17.3279C1.14667 16.6989 1.14623 16.0698 1.14481 15.4408C1.1436 14.905 1.1432 14.3692 1.14385 13.8334C1.14415 13.5602 1.14408 13.287 1.14298 13.0138C1.14199 12.7171 1.14245 12.4205 1.14326 12.1238C1.14232 11.9953 1.14232 11.9953 1.14136 11.8642C1.1473 10.9376 1.37404 10.2825 2.01975 9.61637C2.58255 9.08833 3.21374 8.81788 3.98784 8.81871C4.06529 8.8186 4.14273 8.8185 4.22253 8.81839C4.30659 8.81867 4.39066 8.81895 4.47728 8.81924C4.56649 8.81923 4.6557 8.81921 4.74761 8.8192C5.04225 8.81926 5.33688 8.81986 5.63151 8.82048C5.83589 8.82062 6.04026 8.82073 6.24464 8.82081C6.72745 8.82105 7.21025 8.82169 7.69306 8.82248C8.24286 8.82335 8.79266 8.82378 9.34246 8.82417C10.4731 8.82499 11.6038 8.82636 12.7345 8.82811C12.7324 8.75018 12.7304 8.67226 12.7283 8.59198C12.7211 8.29845 12.7167 8.00494 12.713 7.71135C12.7111 7.58512 12.7084 7.4589 12.705 7.33271C12.6796 6.36967 12.7605 5.59389 13.3839 4.80955C14.1428 4.02285 15.069 3.87033 16.1271 3.87466ZM14.6876 5.93748C14.1813 6.71854 14.1813 6.71854 14.3751 8.82811C18.0876 8.82811 21.8001 8.82811 25.6251 8.82811C25.8321 6.69277 25.8321 6.69277 25.2345 5.85936C24.9663 5.64598 24.7714 5.59561 24.4323 5.59469C24.3509 5.59392 24.2695 5.59315 24.1857 5.59235C24.053 5.59288 24.053 5.59288 23.9177 5.59341C23.8239 5.59288 23.7301 5.59234 23.6334 5.59179C23.3768 5.59061 23.1202 5.59048 22.8635 5.59093C22.649 5.59117 22.4344 5.59069 22.2199 5.59022C21.7137 5.58912 21.2074 5.58924 20.7012 5.59013C20.1795 5.59103 19.6579 5.58993 19.1362 5.58784C18.6877 5.5861 18.2393 5.58559 17.7908 5.58605C17.5232 5.58631 17.2557 5.58612 16.9881 5.58478C16.6896 5.58362 16.3911 5.58444 16.0926 5.58578C15.9602 5.58465 15.9602 5.58465 15.8251 5.5835C15.3591 5.58788 15.0397 5.59875 14.6876 5.93748ZM3.1251 10.8594C2.8286 11.2547 2.80276 11.6028 2.80001 12.0873C2.79962 12.1394 2.79924 12.1916 2.79884 12.2453C2.7977 12.4177 2.79716 12.5901 2.79673 12.7624C2.79651 12.8218 2.79629 12.8811 2.79606 12.9423C2.79489 13.2573 2.79417 13.5723 2.79383 13.8873C2.79341 14.2093 2.79154 14.5312 2.7893 14.8532C2.78783 15.1035 2.78744 15.3538 2.78732 15.6041C2.78709 15.7226 2.78647 15.841 2.78543 15.9595C2.77699 16.9962 2.82596 18.0921 3.33994 19.0185C3.36723 19.0702 3.39452 19.1218 3.42263 19.1751C3.64705 19.5889 3.90259 19.9628 4.21885 20.3125C4.26024 20.3601 4.30163 20.4078 4.34428 20.4568C5.09151 21.2644 6.28925 21.8922 7.39535 21.9672C7.63914 21.9723 7.88248 21.9724 8.12632 21.9708C8.26476 21.9709 8.26476 21.9709 8.406 21.9709C8.70951 21.9708 9.013 21.9696 9.31651 21.9684C9.52755 21.968 9.7386 21.9678 9.94965 21.9677C10.4474 21.9672 10.9451 21.9659 11.4429 21.9644C12.0099 21.9626 12.5769 21.9618 13.1439 21.961C14.3095 21.9593 15.4751 21.9566 16.6407 21.9531C16.6423 21.8822 16.6438 21.8113 16.6454 21.7382C16.6515 21.4735 16.6583 21.2088 16.6655 20.9441C16.6685 20.8299 16.6712 20.7156 16.6737 20.6013C16.6773 20.4365 16.6818 20.2716 16.6865 20.1068C16.689 20.0078 16.6914 19.9088 16.6939 19.8068C16.7241 19.4731 16.7856 19.2015 16.9681 18.918C17.1913 18.7761 17.3914 18.7976 17.6534 18.7965C17.7084 18.796 17.7635 18.7955 17.8202 18.7949C18.0022 18.7935 18.1842 18.7938 18.3662 18.7942C18.4928 18.7939 18.6194 18.7935 18.746 18.793C19.0114 18.7923 19.2769 18.7925 19.5423 18.7933C19.8822 18.7942 20.222 18.7926 20.5619 18.7903C20.8234 18.7889 21.0849 18.7889 21.3464 18.7893C21.4717 18.7893 21.597 18.7889 21.7223 18.7879C21.8977 18.7867 22.073 18.7876 22.2484 18.7889C22.3981 18.7889 22.3981 18.7889 22.5507 18.7889C22.862 18.8355 22.9904 18.9106 23.2032 19.1406C23.3094 19.4482 23.2968 19.7757 23.3061 20.0992C23.3077 20.1524 23.3093 20.2056 23.311 20.2604C23.3161 20.4291 23.3207 20.5978 23.3253 20.7666C23.3287 20.8815 23.3321 20.9964 23.3355 21.1113C23.3439 21.3919 23.3518 21.6725 23.3595 21.9531C24.5704 21.9623 25.7813 21.9691 26.9923 21.9733C27.5547 21.9754 28.1171 21.9781 28.6795 21.9826C29.1703 21.9865 29.661 21.989 30.1518 21.9899C30.4111 21.9904 30.6704 21.9917 30.9298 21.9944C32.7684 22.0125 34.273 21.8023 35.6413 20.4623C36.9287 19.1469 37.227 17.5588 37.2187 15.7931C37.2189 15.6719 37.2191 15.5506 37.2194 15.4293C37.2197 15.178 37.2193 14.9266 37.2182 14.6752C37.2168 14.3542 37.2176 14.0333 37.219 13.7123C37.2198 13.463 37.2196 13.2138 37.219 12.9645C37.2188 12.8461 37.219 12.7277 37.2195 12.6094C37.2201 12.4442 37.2192 12.2791 37.2179 12.1139C37.2177 12.0204 37.2176 11.9268 37.2174 11.8304C37.1605 11.3184 36.9592 10.9621 36.5626 10.625C36.2904 10.5342 36.0783 10.5368 35.7909 10.5364C35.7357 10.5362 35.6804 10.536 35.6235 10.5358C35.437 10.5353 35.2505 10.5353 35.064 10.5354C34.9294 10.5351 34.7949 10.5348 34.6604 10.5345C34.2897 10.5337 33.9189 10.5334 33.5482 10.5332C33.1488 10.5329 32.7493 10.5322 32.3499 10.5315C31.3848 10.5299 30.4197 10.5291 29.4546 10.5284C29.0004 10.5281 28.5462 10.5277 28.092 10.5273C26.5826 10.5259 25.0732 10.5248 23.5638 10.5242C23.172 10.5241 22.7801 10.5239 22.3883 10.5238C22.2423 10.5237 22.2423 10.5237 22.0932 10.5237C20.5149 10.523 18.9365 10.5211 17.3581 10.5185C15.7386 10.5159 14.1191 10.5145 12.4995 10.5143C11.5898 10.5141 10.6801 10.5134 9.77044 10.5114C8.99587 10.5097 8.22131 10.5091 7.44674 10.5099C7.05142 10.5102 6.65612 10.5101 6.2608 10.5086C5.89898 10.5072 5.53718 10.5072 5.17536 10.5085C5.04439 10.5087 4.91343 10.5083 4.78246 10.5074C4.60448 10.5062 4.4266 10.507 4.24862 10.5082C4.14975 10.5081 4.05088 10.508 3.94902 10.508C3.59973 10.557 3.41684 10.6629 3.1251 10.8594ZM18.3595 20.3906C18.3595 21.989 18.3595 23.5875 18.3595 25.2344C19.4423 25.2344 20.5251 25.2344 21.6407 25.2344C21.6407 23.6359 21.6407 22.0375 21.6407 20.3906C20.5579 20.3906 19.4751 20.3906 18.3595 20.3906ZM2.8126 21.3281C2.80712 22.8873 2.80299 24.4466 2.80046 26.0058C2.79925 26.7298 2.7976 27.4538 2.79492 28.1778C2.79258 28.8089 2.79107 29.44 2.79055 30.0711C2.79024 30.4052 2.78953 30.7393 2.78782 31.0734C2.78623 31.3881 2.78574 31.7027 2.78609 32.0174C2.78603 32.1327 2.78556 32.248 2.78466 32.3632C2.7704 33.3274 2.7704 33.3274 3.24717 34.1308C3.55232 34.3969 3.7226 34.3849 4.12421 34.3855C4.17965 34.3857 4.23509 34.3858 4.29221 34.386C4.47987 34.3865 4.66752 34.3865 4.85518 34.3865C4.99032 34.3867 5.12547 34.387 5.26061 34.3874C5.63347 34.3881 6.00632 34.3884 6.37918 34.3886C6.78073 34.3889 7.18229 34.3897 7.58384 34.3904C8.55431 34.3919 9.52477 34.3927 10.4952 34.3934C10.9519 34.3937 11.4085 34.3942 11.8651 34.3946C13.3824 34.3959 14.8997 34.397 16.4171 34.3976C16.811 34.3977 17.205 34.3979 17.5989 34.398C17.6968 34.3981 17.7947 34.3981 17.8956 34.3982C19.4826 34.3988 21.0696 34.4008 22.6566 34.4033C24.2847 34.4059 25.9128 34.4073 27.541 34.4076C28.4556 34.4077 29.3702 34.4084 30.2848 34.4104C31.0636 34.4121 31.8424 34.4127 32.6211 34.412C33.0187 34.4116 33.4162 34.4118 33.8137 34.4133C34.1774 34.4147 34.5412 34.4146 34.9049 34.4134C35.0367 34.4132 35.1684 34.4135 35.3002 34.4145C35.479 34.4156 35.6578 34.4149 35.8367 34.4137C35.9361 34.4137 36.0355 34.4138 36.1379 34.4139C36.457 34.3676 36.6251 34.2624 36.8751 34.0625C37.1602 33.6693 37.1974 33.3428 37.197 32.865C37.1971 32.7634 37.1972 32.6617 37.1973 32.557C37.197 32.4445 37.1968 32.332 37.1965 32.2194C37.1964 32.1009 37.1965 31.9823 37.1965 31.8637C37.1965 31.5419 37.1961 31.22 37.1955 30.8982C37.195 30.5618 37.195 30.2255 37.1949 29.8891C37.1947 29.2522 37.194 28.6153 37.1932 27.9783C37.1924 27.2532 37.1919 26.5281 37.1915 25.803C37.1907 24.3113 37.1893 22.8197 37.1876 21.3281C37.1003 21.4029 37.013 21.4777 36.9258 21.5524C36.8772 21.5941 36.8286 21.6357 36.7785 21.6786C36.6705 21.7714 36.5626 21.8643 36.4549 21.9574C35.0334 23.1424 33.4579 23.6149 31.6167 23.6186C31.5266 23.6194 31.4365 23.6202 31.3438 23.621C31.05 23.6234 30.7562 23.6248 30.4624 23.6261C30.2572 23.6275 30.052 23.6291 29.8467 23.6307C29.3642 23.6343 28.8817 23.6372 28.3992 23.6398C27.8492 23.6428 27.2992 23.6466 26.7492 23.6506C25.6193 23.6586 24.4894 23.6656 23.3595 23.6719C23.3583 23.7447 23.3572 23.8176 23.356 23.8927C23.3512 24.1651 23.3454 24.4375 23.339 24.7099C23.3364 24.8274 23.3342 24.945 23.3324 25.0625C23.3298 25.2322 23.3257 25.4019 23.3213 25.5716C23.3193 25.6734 23.3172 25.7753 23.3151 25.8803C23.2758 26.22 23.2153 26.4214 23.047 26.7187C22.7551 26.9015 22.4704 26.8951 22.1318 26.8964C22.0807 26.8968 22.0295 26.8972 21.9769 26.8976C21.8088 26.8987 21.6407 26.8987 21.4726 26.8985C21.3551 26.8988 21.2377 26.8991 21.1203 26.8995C20.8745 26.9001 20.6287 26.9001 20.3829 26.8996C20.0686 26.8992 19.7544 26.9005 19.4401 26.9023C19.1977 26.9035 18.9553 26.9035 18.7128 26.9033C18.597 26.9033 18.4812 26.9037 18.3653 26.9045C18.203 26.9055 18.0408 26.905 17.8785 26.9041C17.7403 26.9041 17.7403 26.9041 17.5993 26.9042C17.3025 26.8702 17.1217 26.8099 16.8751 26.6406C16.7035 26.2954 16.6957 25.9605 16.6865 25.5792C16.6842 25.497 16.6842 25.497 16.6819 25.4131C16.6773 25.2396 16.6736 25.0661 16.67 24.8926C16.667 24.7743 16.664 24.6559 16.6609 24.5376C16.6534 24.2491 16.6468 23.9605 16.6407 23.6719C16.5712 23.6716 16.5712 23.6716 16.5002 23.6713C15.3667 23.6666 14.2331 23.6607 13.0996 23.6534C12.5514 23.6499 12.0032 23.6469 11.4549 23.6448C10.9251 23.6428 10.3952 23.6396 9.86537 23.6357C9.66406 23.6344 9.46273 23.6335 9.26141 23.633C6.92496 23.6267 4.94625 23.2906 3.20231 21.6287C3.04199 21.472 3.04199 21.472 2.8126 21.3281Z" fill="current"/>
</svg>
