<svg width="40" height="40" viewBox="0 0 40 40" fill="none" xmlns="http://www.w3.org/2000/svg">
<g clip-path="url(#clip0_209_26)">
<path d="M3.32899 5.9174C3.41687 5.91699 3.41687 5.91699 3.50652 5.91657C3.703 5.91584 3.89947 5.91623 4.09595 5.91661C4.23818 5.91631 4.38041 5.91595 4.52263 5.91553C4.91363 5.91458 5.30461 5.9146 5.69561 5.91478C6.11724 5.91481 6.53887 5.91395 6.9605 5.91321C7.78666 5.91191 8.61281 5.91148 9.43896 5.9114C10.1105 5.91132 10.7821 5.911 11.4536 5.91051C13.3573 5.90913 15.2611 5.90841 17.1649 5.90853C17.2675 5.90853 17.3702 5.90854 17.4759 5.90855C17.6301 5.90855 17.6301 5.90855 17.7874 5.90856C19.4529 5.90863 21.1184 5.90713 22.784 5.90493C24.4939 5.90269 26.2039 5.90161 27.9138 5.90174C28.8739 5.90179 29.834 5.90136 30.7941 5.89968C31.6116 5.89826 32.4291 5.89792 33.2466 5.89898C33.6636 5.89949 34.0806 5.8995 34.4977 5.89814C34.8797 5.89692 35.2617 5.89714 35.6437 5.8985C35.7817 5.89874 35.9196 5.89846 36.0576 5.89759C37.2235 5.89071 38.0864 6.08591 38.9844 6.875C39.3533 7.26719 39.6403 7.70439 39.8438 8.20312C39.8705 8.26494 39.8972 8.32675 39.9246 8.39044C40.0315 8.78932 40.0221 9.17133 40.0209 9.58258C40.0213 9.67489 40.0217 9.7672 40.022 9.86231C40.0228 10.1179 40.023 10.3735 40.0228 10.6291C40.0227 10.905 40.0236 11.181 40.0243 11.4569C40.0256 11.9973 40.0261 12.5377 40.0262 13.0781C40.0262 13.5175 40.0265 13.9569 40.027 14.3964C40.0284 15.643 40.0291 16.8896 40.029 18.1362C40.029 18.237 40.029 18.237 40.029 18.3398C40.029 18.4071 40.029 18.4744 40.029 18.5437C40.0289 19.6333 40.0304 20.7229 40.0326 21.8125C40.0349 22.932 40.0359 24.0515 40.0358 25.1711C40.0358 25.7993 40.0362 26.4275 40.0379 27.0557C40.0393 27.5908 40.0396 28.1258 40.0386 28.6608C40.0381 28.9335 40.038 29.2062 40.0394 29.479C40.0406 29.7753 40.0399 30.0715 40.0387 30.3678C40.0395 30.4531 40.0403 30.5385 40.0411 30.6264C40.0326 31.5844 39.6915 32.3311 39.0625 33.0469C38.3931 33.6766 37.5998 34.0881 36.6711 34.0826C36.6125 34.0829 36.5539 34.0831 36.4936 34.0834C36.2971 34.0842 36.1006 34.0838 35.9041 34.0834C35.7619 34.0837 35.6197 34.084 35.4775 34.0845C35.0865 34.0854 34.6955 34.0854 34.3045 34.0852C33.8829 34.0852 33.4612 34.086 33.0396 34.0868C32.2134 34.0881 31.3873 34.0885 30.5611 34.0886C29.8896 34.0887 29.218 34.089 28.5465 34.0895C26.6428 34.0909 24.739 34.0916 22.8353 34.0915C22.7326 34.0915 22.6299 34.0915 22.5242 34.0915C22.4214 34.0914 22.3186 34.0914 22.2127 34.0914C20.5472 34.0914 18.8817 34.0929 17.2161 34.0951C15.5062 34.0973 13.7962 34.0984 12.0863 34.0983C11.1262 34.0982 10.1661 34.0986 9.20601 34.1003C8.38851 34.1017 7.57102 34.1021 6.75352 34.101C6.33648 34.1005 5.91946 34.1005 5.50243 34.1019C5.12041 34.1031 4.73841 34.1029 4.35639 34.1015C4.21843 34.1013 4.08048 34.1015 3.94253 34.1024C2.77662 34.1093 1.9137 33.9141 1.01568 33.125C0.646755 32.7328 0.359847 32.2956 0.156301 31.7969C0.129622 31.7351 0.102944 31.6732 0.0754572 31.6096C-0.0314166 31.2107 -0.0219962 30.8287 -0.0208418 30.4174C-0.0211958 30.3251 -0.0215497 30.2328 -0.0219144 30.1377C-0.0227316 29.8821 -0.0228499 29.6265 -0.0226654 29.3709C-0.0226335 29.095 -0.0234963 28.819 -0.0242369 28.5431C-0.0255339 28.0027 -0.0259641 27.4623 -0.0260513 26.9219C-0.0261256 26.4825 -0.026447 26.043 -0.0269421 25.6036C-0.028318 24.357 -0.0290387 23.1104 -0.0289215 21.8638C-0.0289153 21.7966 -0.0289092 21.7294 -0.0289028 21.6602C-0.0288964 21.5929 -0.02889 21.5256 -0.0288834 21.4563C-0.0288199 20.3667 -0.0303144 19.2771 -0.0325181 18.1875C-0.0347644 17.068 -0.0358415 15.9485 -0.0357066 14.8289C-0.0356548 14.2007 -0.0360813 13.5725 -0.0377657 12.9443C-0.0391909 12.4092 -0.039526 11.8742 -0.0384672 11.3392C-0.0379583 11.0665 -0.0379436 10.7938 -0.0393038 10.521C-0.0405118 10.2247 -0.0397832 9.92849 -0.0385802 9.63218C-0.0393839 9.54685 -0.0401876 9.46152 -0.0410156 9.3736C-0.0324477 8.41562 0.308566 7.66894 0.937551 6.95312C1.607 6.3234 2.40034 5.91187 3.32899 5.9174ZM4.14068 8.28125C4.44548 8.63685 4.74641 8.97644 5.07682 9.30544C5.14375 9.37256 5.14375 9.37256 5.21204 9.44103C5.36009 9.58939 5.50842 9.73747 5.65675 9.88556C5.76358 9.99249 5.87039 10.0994 5.97719 10.2064C6.26627 10.4958 6.55559 10.785 6.84497 11.0742C7.14842 11.3774 7.45168 11.6809 7.75497 11.9843C8.26433 12.4938 8.77385 13.0031 9.28346 13.5123C9.8717 14.1002 10.4597 14.6883 11.0475 15.2765C11.5531 15.7824 12.0588 16.2882 12.5646 16.7939C12.8664 17.0955 13.168 17.3971 13.4696 17.6989C13.7532 17.9828 14.0371 18.2665 14.321 18.55C14.4249 18.6538 14.5287 18.7576 14.6324 18.8615C15.3232 19.5557 15.3232 19.5557 16.0521 20.2094C16.2374 20.3688 16.4032 20.5448 16.5705 20.7227C17.6035 21.8021 18.4834 22.69 20.0782 22.7344C21.4482 22.6923 22.3444 21.8741 23.2325 20.9375C23.3744 20.7904 23.5167 20.6438 23.6592 20.4973C23.7468 20.407 23.834 20.3163 23.9207 20.2252C24.1248 20.012 24.3323 19.8111 24.5581 19.621C25.0613 19.1828 25.5258 18.7039 25.9969 18.232C26.1047 18.1243 26.2126 18.0166 26.3205 17.9089C26.6118 17.6179 26.9029 17.3267 27.1939 17.0354C27.4987 16.7304 27.8036 16.4257 28.1085 16.1209C28.6198 15.6097 29.131 15.0983 29.6421 14.5869C30.2337 13.9949 30.8256 13.4031 31.4176 12.8115C31.926 12.3035 32.4342 11.7953 32.9423 11.287C33.2458 10.9834 33.5493 10.6799 33.8529 10.3765C34.1378 10.0918 34.4225 9.80698 34.7071 9.52197C34.8118 9.41712 34.9167 9.31234 35.0215 9.20762C35.164 9.06537 35.3062 8.92288 35.4484 8.78032C35.4905 8.73836 35.5327 8.69641 35.5761 8.65318C35.7721 8.49421 35.7721 8.49421 35.8594 8.28125C25.3922 8.28125 14.9251 8.28125 4.14068 8.28125ZM2.3438 10.0781C2.3438 16.6523 2.3438 23.2266 2.3438 30C2.68351 29.7088 3.00153 29.4301 3.31532 29.116C3.35439 29.077 3.39346 29.038 3.43371 28.9978C3.56283 28.8688 3.69168 28.7395 3.82053 28.6103C3.91372 28.517 4.00694 28.4238 4.10017 28.3307C4.35195 28.0789 4.60349 27.8269 4.85499 27.5749C5.11833 27.311 5.38189 27.0474 5.64543 26.7838C6.14388 26.2851 6.64214 25.7862 7.14032 25.2872C7.70773 24.7189 8.27536 24.1509 8.84301 23.5828C10.0102 22.4148 11.1771 21.2466 12.3438 20.0781C12.2222 19.7877 12.0444 19.6028 11.823 19.3812C11.7856 19.3436 11.7483 19.3061 11.7098 19.2673C11.5848 19.1416 11.4591 19.0165 11.3335 18.8913C11.2436 18.8013 11.1538 18.7111 11.064 18.621C10.8199 18.3762 10.5754 18.132 10.3308 17.8878C10.0745 17.632 9.81868 17.3758 9.56276 17.1196C9.1326 16.6892 8.7021 16.2591 8.27142 15.8291C7.77437 15.3329 7.27788 14.8362 6.78168 14.3391C6.35521 13.9119 5.92843 13.485 5.5014 13.0584C5.24656 12.8038 4.99184 12.5491 4.73738 12.2942C4.49778 12.0541 4.2578 11.8144 4.01752 11.5751C3.92972 11.4875 3.84204 11.3997 3.75451 11.3118C3.63433 11.1912 3.51367 11.0711 3.39289 10.9511C3.29208 10.8504 3.29208 10.8504 3.18924 10.7477C2.92347 10.5056 2.63139 10.2938 2.3438 10.0781ZM37.0745 10.5383C36.9921 10.6157 36.9921 10.6157 36.9081 10.6947C36.0724 11.4862 35.2632 12.3051 34.4503 13.1199C34.2108 13.36 33.971 13.5998 33.7312 13.8397C33.2793 14.2919 32.8275 14.7442 32.3758 15.1967C31.8608 15.7127 31.3454 16.2284 30.8301 16.7441C29.7719 17.8031 28.714 18.8624 27.6563 19.9219C27.7803 20.2232 27.9726 20.4139 28.2016 20.6427C28.2615 20.7029 28.2615 20.7029 28.3226 20.7643C28.4566 20.8987 28.591 21.0325 28.7255 21.1663C28.8216 21.2625 28.9178 21.3588 29.0138 21.4551C29.2748 21.7164 29.5362 21.9773 29.7978 22.238C30.0711 22.5106 30.344 22.7837 30.6169 23.0566C31.0751 23.5148 31.5337 23.9726 31.9924 24.4303C32.5235 24.9602 33.0542 25.4904 33.5847 26.021C34.0943 26.5307 34.6041 27.0401 35.1141 27.5495C35.3315 27.7666 35.5489 27.9838 35.7661 28.201C36.0216 28.4564 36.2773 28.7116 36.5331 28.9666C36.6273 29.0606 36.7213 29.1545 36.8153 29.2486C36.9431 29.3764 37.0711 29.5039 37.1991 29.6314C37.2708 29.703 37.3426 29.7746 37.4165 29.8484C37.5507 30.0089 37.5507 30.0089 37.6563 30C37.6563 23.4258 37.6563 16.8516 37.6563 10.0781C37.4621 10.0781 37.2169 10.4043 37.0745 10.5383ZM13.9325 21.9144C13.882 21.9674 13.8314 22.0205 13.7793 22.0752C13.5837 22.28 13.3827 22.4702 13.1672 22.6536C12.7413 23.0252 12.3446 23.4258 11.9455 23.8256C11.86 23.911 11.7745 23.9964 11.689 24.0818C11.4585 24.3119 11.2283 24.5423 10.9981 24.7727C10.7568 25.0142 10.5154 25.2555 10.2739 25.4968C9.86928 25.9013 9.46478 26.306 9.06038 26.7107C8.59232 27.1792 8.12399 27.6474 7.65551 28.1155C7.25296 28.5177 6.85055 28.92 6.44828 29.3225C6.20812 29.5628 5.96791 29.803 5.72757 30.0431C5.50218 30.2682 5.27699 30.4936 5.05194 30.7191C4.96911 30.802 4.88622 30.8849 4.80325 30.9677C4.69055 31.0802 4.57811 31.1929 4.46569 31.3057C4.37098 31.4004 4.37098 31.4004 4.27436 31.4971C4.1318 31.6175 4.1318 31.6175 4.14068 31.7187C14.6079 31.7187 25.0751 31.7187 35.8594 31.7187C35.5786 31.3912 35.3117 31.0831 35.0093 30.7806C34.9366 30.7076 34.8639 30.6347 34.789 30.5596C34.7098 30.4805 34.6305 30.4015 34.5513 30.3224C34.4668 30.2378 34.3823 30.1532 34.2979 30.0685C34.0696 29.8399 33.8412 29.6116 33.6126 29.3833C33.3727 29.1436 33.1329 28.9036 32.8931 28.6637C32.4904 28.2609 32.0876 27.8582 31.6846 27.4556C31.2199 26.9914 30.7555 26.5268 30.2913 26.0621C29.8915 25.662 29.4916 25.2621 29.0916 24.8622C28.8531 24.6239 28.6148 24.3856 28.3766 24.1471C28.1524 23.9227 27.9281 23.6986 27.7036 23.4746C27.6217 23.3927 27.5398 23.3108 27.458 23.2288C26.6971 22.4102 26.6971 22.4102 25.7813 21.7969C25.7369 21.8425 25.6925 21.8881 25.6468 21.9351C23.9825 23.6393 22.4445 25.0467 19.9246 25.0803C17.7462 25.051 16.2757 23.8725 14.8243 22.4023C14.7665 22.3427 14.7087 22.283 14.6492 22.2216C14.5954 22.1664 14.5416 22.1113 14.4861 22.0544C14.4383 22.0048 14.3904 21.9551 14.3411 21.9039C14.1652 21.75 14.1048 21.7586 13.9325 21.9144Z" fill="#00A66E"/>
</g>
<defs>
<clipPath id="clip0_209_26">
<rect width="40" height="40" fill="white"/>
</clipPath>
</defs>
</svg>
