<svg width="40" height="40" viewBox="0 0 40 40" fill="none" xmlns="http://www.w3.org/2000/svg">
<g clip-path="url(#clip0_209_24)">
<path d="M10.2127 0.598421C10.5445 0.826909 10.8438 1.07903 11.1369 1.35432C11.2105 1.4232 11.2105 1.4232 11.2855 1.49346C12.095 2.25796 12.8815 3.04658 13.6698 3.8327C13.9074 4.0696 14.1458 4.30577 14.3843 4.54179C14.5713 4.72709 14.7578 4.91293 14.9441 5.0989C15.0317 5.18611 15.1194 5.27314 15.2074 5.35994C15.672 5.81887 16.1116 6.2875 16.5177 6.79942C16.553 6.84366 16.5882 6.88789 16.6245 6.93347C17.267 7.7635 17.5142 8.73329 17.4043 9.76911C17.2529 10.7001 16.9023 11.3712 16.2772 12.0691C16.22 12.1347 16.1627 12.2004 16.1037 12.268C15.6165 12.8132 15.1006 13.3301 14.5842 13.8477C14.5147 13.9175 14.4451 13.9873 14.3735 14.0593C13.9799 14.4514 13.5792 14.8292 13.1547 15.1877C13.8313 16.7287 14.7246 18.1104 15.8088 19.3979C15.8426 19.4381 15.8764 19.4783 15.9112 19.5198C16.7364 20.5006 17.6037 21.4312 18.5069 22.3411C18.5742 22.4093 18.6415 22.4775 18.7109 22.5479C19.1763 23.0133 19.6664 23.4314 20.1804 23.8419C20.2778 23.9236 20.3749 24.0057 20.4716 24.0883C21.5783 25.0222 22.7897 25.8473 24.0641 26.5366C24.1175 26.5659 24.1709 26.5952 24.226 26.6254C24.491 26.7673 24.491 26.7673 24.7837 26.7889C24.9827 26.7107 25.0871 26.6085 25.2364 26.4557C25.293 26.3984 25.3496 26.3411 25.4079 26.2821C25.4988 26.1884 25.4988 26.1884 25.5915 26.0928C25.6549 26.0287 25.7182 25.9645 25.7835 25.8984C26.0545 25.624 26.324 25.3482 26.5937 25.0725C26.7909 24.8712 26.9889 24.6707 27.1869 24.4702C27.2464 24.4088 27.3059 24.3475 27.3671 24.2843C27.916 23.7289 28.5276 23.1947 29.2651 22.9112C29.3397 22.8815 29.4144 22.8519 29.4913 22.8213C30.4281 22.509 31.4612 22.6017 32.3583 22.9843C33.2424 23.4585 33.914 24.1805 34.6139 24.8838C34.739 25.0085 34.8641 25.1331 34.9893 25.2577C35.2502 25.5179 35.5105 25.7785 35.7705 26.0396C36.102 26.3725 36.435 26.704 36.7683 27.0351C37.0266 27.2919 37.284 27.5494 37.5413 27.8071C37.6637 27.9296 37.7863 28.0518 37.9092 28.1738C39.1311 29.3885 39.1311 29.3885 39.5402 30.1571C39.5727 30.2158 39.6053 30.2746 39.6389 30.3351C40.1227 31.2419 40.0678 32.3221 39.782 33.2772C39.3284 34.5072 38.2938 35.407 37.3788 36.3018C37.2057 36.4719 37.0328 36.6421 36.8601 36.8126C36.7537 36.9176 36.647 37.0224 36.54 37.1269C36.2378 37.4241 35.953 37.7308 35.6775 38.053C34.724 39.1347 33.2383 39.8368 31.8119 39.9807C29.774 40.0789 27.9001 39.7991 25.9571 39.2011C25.8945 39.1819 25.8318 39.1628 25.7673 39.1431C22.6258 38.1626 19.5879 36.4745 16.9017 34.6011C16.8575 34.5704 16.8133 34.5396 16.7677 34.5079C16.4454 34.2828 16.1263 34.0533 15.8088 33.8215C15.7584 33.7847 15.708 33.7479 15.656 33.71C15.0087 33.236 14.3816 32.7464 13.7737 32.2229C13.5776 32.056 13.3783 31.8976 13.1742 31.7408C12.4171 31.1428 11.7282 30.4489 11.047 29.7673C10.9173 29.6395 10.7876 29.5118 10.6579 29.3841C10.546 29.2735 10.4342 29.1629 10.3224 29.0521C10.2467 28.9773 10.1709 28.9027 10.0949 28.8281C9.62558 28.3675 9.18723 27.8938 8.77627 27.38C8.60775 27.1705 8.43112 26.9755 8.24644 26.7802C7.84201 26.3397 7.47254 25.8787 7.10934 25.4042C7.02504 25.2941 6.94045 25.1842 6.85563 25.0745C6.04221 24.0208 5.29185 22.9313 4.5677 21.8148C4.53505 21.7645 4.50239 21.7142 4.46875 21.6624C4.28638 21.3795 4.11296 21.0918 3.94319 20.8012C3.90736 20.7404 3.87152 20.6796 3.8346 20.6169C1.65655 16.9027 -0.866353 11.7477 0.29113 7.31074C0.620401 6.13656 1.19381 5.2482 2.01539 4.36178C2.07534 4.29707 2.07534 4.29707 2.13651 4.23105C2.62187 3.71059 3.12173 3.2045 3.62453 2.7009C3.78743 2.53745 3.94947 2.37318 4.11152 2.2089C5.56571 0.744811 5.56571 0.744811 6.51929 0.335288C6.6014 0.299107 6.68352 0.262926 6.76812 0.225649C7.88165 -0.206847 9.20601 0.017818 10.2127 0.598421ZM4.94412 4.42362C4.74841 4.61833 4.55187 4.8122 4.35531 5.00606C4.22897 5.13174 4.10267 5.25747 3.97643 5.38325C3.91852 5.44012 3.86061 5.497 3.80095 5.5556C2.73838 6.62133 2.16689 7.81245 2.14628 9.33117C2.16835 11.8466 3.06954 14.2501 4.09932 16.5131C4.13309 16.5881 4.16687 16.663 4.20166 16.7402C4.99763 18.4934 5.95995 20.1597 7.06573 21.7368C7.09643 21.7808 7.12712 21.8247 7.15874 21.87C7.89432 22.9206 8.66007 23.9515 9.4857 24.9334C9.51899 24.9733 9.55227 25.0131 9.58656 25.0542C10.0235 25.5775 10.4686 26.0907 10.9311 26.5917C11.0814 26.7567 11.2275 26.9236 11.3729 27.0927C11.714 27.483 12.0798 27.8475 12.4472 28.2128C12.514 28.2798 12.5808 28.3468 12.6496 28.4158C12.9963 28.7616 13.3479 29.0962 13.7197 29.4151C13.9096 29.5783 14.0929 29.7484 14.2769 29.9183C14.6707 30.2762 15.0767 30.6101 15.4966 30.9367C15.6015 31.0196 15.7064 31.1024 15.8113 31.1853C16.5989 31.8052 17.3995 32.4006 18.2288 32.9639C18.2797 32.9985 18.3306 33.033 18.383 33.0687C21.8885 35.4325 27.1043 38.5687 31.5457 37.9122C32.4578 37.7302 33.132 37.4641 33.8415 36.8621C33.9623 36.7681 33.9623 36.7681 34.0855 36.6721C34.2532 36.5228 34.3822 36.3907 34.5237 36.2207C34.8031 35.8987 35.1019 35.5997 35.4055 35.3007C35.4559 35.251 35.5063 35.2013 35.5582 35.1501C35.7692 34.9422 35.9804 34.7345 36.1924 34.5276C37.3664 33.4597 37.3664 33.4597 37.8569 32.0136C37.86 31.9466 37.8632 31.8796 37.8664 31.8105C37.7504 31.1453 37.3518 30.6426 36.8809 30.182C36.8269 30.1276 36.7729 30.0732 36.7172 30.0172C36.5404 29.8397 36.3623 29.6637 36.184 29.4877C36.0598 29.3638 35.9357 29.2398 35.8116 29.1157C35.5522 28.8568 35.2922 28.5985 35.0317 28.3408C34.6984 28.011 34.3665 27.6799 34.035 27.3483C33.7791 27.0924 33.5226 26.8372 33.2659 26.5822C33.1433 26.4603 33.0209 26.3382 32.8986 26.216C32.7275 26.0453 32.5557 25.8754 32.3837 25.7056C32.3337 25.6555 32.2837 25.6053 32.2322 25.5537C31.7712 25.1019 31.3384 24.8115 30.679 24.7696C29.8023 24.8053 29.2027 25.4925 28.6311 26.0761C28.5579 26.1501 28.4846 26.2241 28.4113 26.298C28.1017 26.6103 27.7931 26.9235 27.4848 27.237C27.2955 27.4295 27.1056 27.6213 26.9153 27.8129C26.8087 27.9205 26.7028 28.0289 26.5969 28.1373C26.248 28.4885 25.9355 28.7711 25.4887 28.9876C25.4372 29.0133 25.3857 29.0391 25.3326 29.0656C24.533 29.1996 23.9847 28.9087 23.3113 28.5322C23.1489 28.443 22.9847 28.3594 22.8187 28.2771C21.9861 27.8605 21.2398 27.3578 20.4927 26.8046C20.4056 26.7409 20.3185 26.6773 20.2313 26.6136C19.7061 26.2258 19.1977 25.8203 18.6972 25.4012C18.6576 25.3688 18.618 25.3364 18.5772 25.303C17.8482 24.7057 17.1775 24.054 16.5114 23.3887C16.4691 23.3465 16.4267 23.3043 16.3831 23.2608C15.9146 22.7927 15.4575 22.3194 15.0282 21.8148C14.956 21.733 14.8836 21.6514 14.8111 21.5699C13.477 20.0539 12.2909 18.408 11.4281 16.5785C11.3277 16.3695 11.2205 16.1639 11.1133 15.9583C10.9018 15.4901 10.8666 14.9262 11.0406 14.4428C11.2507 14.0574 11.519 13.7753 11.8462 13.4856C12.4001 12.9879 12.9297 12.467 13.4572 11.9416C13.6193 11.7805 13.7823 11.6202 13.9452 11.4598C14.05 11.3557 14.1548 11.2515 14.2595 11.1472C14.3075 11.1003 14.3554 11.0533 14.4049 11.0049C14.8835 10.5244 15.2658 10.028 15.2917 9.33056C15.2786 8.61557 14.9254 8.21316 14.4516 7.70619C14.4105 7.66202 14.3695 7.61786 14.3271 7.57235C13.8662 7.07938 13.3917 6.60008 12.915 6.1224C12.8686 6.07584 12.8222 6.02928 12.7744 5.98131C12.5298 5.7358 12.2849 5.49051 12.0398 5.2454C11.7891 4.99457 11.5391 4.74302 11.2893 4.4913C11.0945 4.29532 10.8992 4.09987 10.7038 3.90456C10.6114 3.81207 10.5192 3.71939 10.4273 3.6265C9.43371 2.56519 9.43371 2.56519 8.10495 2.14311C6.7874 2.16207 5.80948 3.56139 4.94412 4.42362Z" fill="#00A66E"/>
</g>
<defs>
<clipPath id="clip0_209_24">
<rect width="40" height="40" fill="white"/>
</clipPath>
</defs>
</svg>
