<svg width="40" height="40" viewBox="0 0 40 40" fill="none" xmlns="http://www.w3.org/2000/svg">
<g clip-path="url(#clip0_209_28)">
<path d="M39.0626 3.04688C39.5768 3.45248 39.9476 4.00878 40.0256 4.66936C40.0687 5.75191 39.7854 6.77302 39.5304 7.81685C39.4621 8.09797 39.3954 8.37949 39.3286 8.66096C39.2136 9.14385 39.0977 9.62649 38.9812 10.109C38.7966 10.8729 38.614 11.6373 38.4317 12.4018C38.3701 12.6603 38.3084 12.9188 38.2467 13.1772C38.2315 13.2413 38.2162 13.3053 38.2004 13.3712C38.0921 13.8254 37.9834 14.2794 37.8746 14.7335C37.3843 16.7797 36.9019 18.8277 36.4239 20.8769C36.2235 21.7362 36.0222 22.5954 35.821 23.4546C35.801 23.54 35.781 23.6255 35.7604 23.7135C35.2744 25.7894 34.7872 27.8651 34.2986 29.9405C34.2728 30.0505 34.2469 30.1604 34.221 30.2703C34.2083 30.3245 34.1955 30.3786 34.1824 30.4343C34.0937 30.8115 34.005 31.1886 33.9165 31.5657C33.798 32.0702 33.6793 32.5747 33.5604 33.0791C33.5167 33.2647 33.4731 33.4503 33.4295 33.636C33.3697 33.8911 33.3095 34.1462 33.2493 34.4012C33.2322 34.4746 33.215 34.5481 33.1973 34.6237C32.9544 35.6488 32.7111 36.4883 31.797 37.1094C31.1291 37.4663 30.4058 37.4849 29.6876 37.2806C29.0294 37.0192 28.5042 36.494 27.9724 36.0373C27.6669 35.7753 27.3543 35.5248 27.0362 35.2783C26.6062 34.9446 26.191 34.5966 25.7794 34.2403C25.4584 33.9629 25.1315 33.6946 24.7987 33.4314C24.4457 33.1513 24.0985 32.864 23.7501 32.5781C23.6069 32.4609 23.4637 32.3437 23.3204 32.2266C23.25 32.169 23.1796 32.1114 23.1071 32.052C22.9588 31.9307 22.8105 31.8094 22.6621 31.6882C22.2942 31.3875 21.9268 31.0864 21.5626 30.7813C21.3502 30.8823 21.1603 30.9935 20.9696 31.131C20.8887 31.1893 20.8887 31.1893 20.8061 31.2488C20.7189 31.3122 20.7189 31.3122 20.63 31.377C20.5377 31.4438 20.5377 31.4438 20.4436 31.512C19.8961 31.911 19.3574 32.3211 18.8197 32.7332C18.3111 33.1225 17.7974 33.504 17.2804 33.8821C16.7276 34.2877 16.183 34.7038 15.641 35.1238C14.4159 36.0661 14.4159 36.0661 13.672 36.0156C13.3004 35.8772 13.1179 35.7109 12.8907 35.3906C12.6233 34.7487 12.5053 34.0561 12.3927 33.3732C12.3459 33.0896 12.2967 32.8065 12.2478 32.5232C12.2375 32.4633 12.2272 32.4033 12.2166 32.3415C12.0712 31.4975 11.9094 30.6565 11.7487 29.8152C11.6188 29.1326 11.4946 28.4498 11.3826 27.764C11.0451 24.6896 11.0451 24.6896 9.50674 22.1951C8.77365 21.737 7.9772 21.5216 7.13781 21.3504C6.49649 21.2115 5.9134 20.9237 5.32253 20.6456C5.01597 20.5031 4.70549 20.3696 4.39524 20.2353C4.2741 20.1825 4.15297 20.1298 4.03185 20.077C3.73232 19.9473 3.43169 19.8204 3.13051 19.6947C2.90078 19.5986 2.67154 19.5014 2.44233 19.4041C2.3367 19.3596 2.23084 19.3157 2.12472 19.2725C1.34474 18.9544 0.591783 18.5614 0.190525 17.7832C-0.0676117 17.1323 -0.123171 16.4205 0.0827982 15.744C0.511244 14.8268 1.1175 14.4913 2.03135 14.1406C2.38416 14.015 2.73955 13.8984 3.0958 13.783C3.20071 13.7487 3.3056 13.7143 3.41048 13.6799C3.63761 13.6056 3.86481 13.5314 4.09207 13.4575C4.46358 13.3365 4.83492 13.2151 5.20622 13.0935C5.27075 13.0723 5.33528 13.0512 5.40177 13.0294C5.53502 12.9858 5.66826 12.9422 5.80151 12.8986C6.0085 12.8308 6.21551 12.7631 6.42253 12.6954C7.97298 12.1882 9.52198 11.6766 11.071 11.165C11.8233 10.9165 12.5756 10.6682 13.328 10.4198C13.4954 10.3646 13.6629 10.3093 13.8304 10.254C15.5629 9.68214 17.2956 9.11097 19.0284 8.54004C19.1696 8.49354 19.3107 8.44703 19.4518 8.40053C19.734 8.30755 20.0162 8.21457 20.2984 8.12159C20.3682 8.09858 20.4381 8.07558 20.51 8.05187C20.6509 8.00544 20.7919 7.95901 20.9328 7.91258C22.1639 7.50696 23.3949 7.10122 24.6259 6.69537C24.7744 6.64639 24.923 6.59742 25.0715 6.54844C25.1451 6.52417 25.2188 6.4999 25.2946 6.47489C25.7365 6.3292 26.1785 6.18355 26.6204 6.03794C26.9872 5.9171 27.354 5.79623 27.7207 5.67536C27.7936 5.65133 27.8665 5.62731 27.9416 5.60256C28.9713 5.26319 30.0006 4.92297 31.0297 4.5822C31.6091 4.39037 32.1885 4.19876 32.7679 4.0072C33.2409 3.85082 33.7137 3.69415 34.1865 3.53725C34.4781 3.44055 34.7698 3.34415 35.0615 3.24782C35.1964 3.20321 35.3313 3.15849 35.4661 3.11363C35.651 3.05213 35.836 2.99105 36.0211 2.93007C36.0739 2.91239 36.1267 2.89471 36.1811 2.8765C37.1964 2.54388 38.1272 2.41947 39.0626 3.04688ZM37.0444 5.16774C36.9837 5.18769 36.9229 5.20765 36.8604 5.22821C36.7605 5.2616 36.7605 5.2616 36.6587 5.29566C36.5527 5.33065 36.5527 5.33065 36.4446 5.36635C36.2078 5.44461 35.9712 5.52336 35.7347 5.60211C35.567 5.65764 35.3993 5.71312 35.2316 5.76858C34.8723 5.8875 34.513 6.00664 34.1538 6.12594C33.5849 6.31486 33.0159 6.50332 32.4469 6.69169C31.869 6.88299 31.2911 7.07432 30.7133 7.26582C29.2076 7.76478 27.7012 8.26167 26.1944 8.75723C25.5522 8.96843 24.9101 9.1798 24.268 9.39118C24.2036 9.41237 24.1392 9.43356 24.0729 9.45539C22.4277 9.99694 20.783 10.5397 19.1382 11.0824C18.417 11.3204 17.6958 11.5583 16.9746 11.7963C16.8955 11.8223 16.8165 11.8484 16.735 11.8753C15.2136 12.3773 13.6921 12.879 12.1706 13.3805C11.7431 13.5214 11.3156 13.6623 10.8881 13.8034C9.49868 14.2617 8.10883 14.7189 6.71771 15.1722C6.31305 15.3041 5.90848 15.4363 5.5039 15.5685C5.12442 15.6925 4.74477 15.8159 4.36498 15.939C4.13468 16.0137 3.90455 16.0889 3.67445 16.1642C3.56817 16.1989 3.46181 16.2334 3.35539 16.2677C3.21122 16.3141 3.0673 16.3613 2.92339 16.4086C2.84299 16.4347 2.76258 16.4609 2.67974 16.4878C2.48772 16.5447 2.48772 16.5447 2.42197 16.7188C3.75874 17.3065 5.09552 17.8941 6.43381 18.4784C6.53028 18.5205 6.53028 18.5205 6.6287 18.5635C6.94576 18.7018 7.26295 18.8399 7.58036 18.9774C8.12093 19.2118 8.66098 19.4469 9.1975 19.6905C9.41535 19.7893 9.63366 19.8871 9.85202 19.9847C9.9527 20.0301 10.0531 20.0761 10.1533 20.1226C10.2897 20.1859 10.427 20.2473 10.5644 20.3085C10.6789 20.3609 10.6789 20.3609 10.7957 20.4143C11.1923 20.5124 11.5052 20.3147 11.8437 20.119C11.9115 20.0802 11.9794 20.0413 12.0493 20.0013C12.1223 19.959 12.1954 19.9166 12.2706 19.873C12.4322 19.7806 12.5938 19.6882 12.7555 19.5959C12.841 19.5472 12.9265 19.4984 13.0145 19.4481C13.4724 19.1886 13.9335 18.9352 14.3946 18.6816C14.5877 18.5754 14.7808 18.4691 14.9739 18.3627C15.0217 18.3364 15.0695 18.3101 15.1188 18.2829C15.617 18.0085 16.1143 17.7324 16.6114 17.4561C16.741 17.384 16.741 17.384 16.8732 17.3105C17.0472 17.2138 17.2212 17.117 17.3952 17.0202C17.8337 16.7764 18.2724 16.5327 18.711 16.2891C18.8868 16.1914 19.0626 16.0938 19.2384 15.9961C24.5118 13.0664 24.5118 13.0664 24.7758 12.9198C24.9506 12.8226 25.1254 12.7255 25.3003 12.6283C25.7065 12.4026 26.1128 12.1769 26.5193 11.9518C26.7081 11.8472 26.8969 11.7426 27.0857 11.6379C27.2165 11.5654 27.3473 11.4931 27.4781 11.4207C27.9656 11.1504 28.4474 10.8731 28.9244 10.5844C29.3464 10.3588 29.7584 10.2346 30.2345 10.3125C30.5342 10.4709 30.7812 10.6329 30.9376 10.9375C31.034 11.3215 31.0654 11.6793 30.8787 12.0428C30.4692 12.6514 29.8951 13.1556 29.376 13.6695C29.1473 13.8966 28.9239 14.1235 28.7159 14.3701C28.4462 14.6895 28.1485 14.9795 27.8517 15.2734C27.4083 15.7098 27.4083 15.7098 26.9923 16.1719C26.6769 16.5464 26.322 16.8831 25.9744 17.2273C25.6868 17.5132 25.4125 17.8029 25.1512 18.1131C24.8822 18.4125 24.5916 18.6911 24.3056 18.9742C24.0744 19.2039 23.848 19.4331 23.6378 19.6826C23.368 20.002 23.0703 20.292 22.7735 20.5859C22.3302 21.0223 22.3302 21.0223 21.9142 21.4844C21.5987 21.859 21.2437 22.1957 20.8961 22.54C20.654 22.7806 20.4155 23.0199 20.1954 23.2813C20.0171 23.4891 19.8331 23.6862 19.6375 23.8779C19.585 23.9298 19.5325 23.9817 19.4784 24.0352C19.3725 24.1393 19.2662 24.2431 19.1595 24.3465C18.9014 24.5998 18.6827 24.8305 18.5157 25.1563C18.5678 25.1989 18.6199 25.2415 18.6735 25.2853C20.6642 26.9141 20.6642 26.9141 20.8808 27.0914C21.0179 27.2035 21.155 27.3156 21.2922 27.4277C21.7929 27.8369 22.2922 28.2478 22.7913 28.659C23.2403 29.0289 23.6902 29.3976 24.1407 29.7656C24.284 29.8828 24.4272 30 24.5704 30.1172C24.6413 30.1752 24.7122 30.2332 24.7853 30.293C26.1459 31.4063 27.5066 32.5195 28.8673 33.6328C28.9375 33.6902 29.0077 33.7476 29.08 33.8068C29.2304 33.9299 29.3808 34.0532 29.531 34.1766C29.6069 34.2389 29.6827 34.3011 29.7608 34.3652C29.8292 34.4214 29.8976 34.4776 29.9681 34.5355C30.2629 34.8117 30.2629 34.8117 30.6251 34.9219C30.6357 34.8769 30.6463 34.8319 30.6572 34.7856C30.6901 34.6456 30.723 34.5057 30.756 34.3657C30.7962 34.1945 30.8365 34.0233 30.8768 33.8521C30.9826 33.4027 31.0883 32.9533 31.1941 32.5038C31.2583 32.2306 31.3226 31.9573 31.3869 31.684C31.4002 31.6276 31.4135 31.5711 31.4272 31.513C31.6093 30.7392 31.7913 29.9653 31.9734 29.1915C32.1189 28.5728 32.2645 27.9542 32.4101 27.3355C32.4248 27.2728 32.4396 27.2101 32.4548 27.1455C32.8694 25.3831 33.2843 23.6207 33.6993 21.8583C34.3294 19.1825 34.9591 16.5066 35.5879 13.8304C35.6252 13.6713 35.6626 13.5121 35.7 13.353C36.0096 12.0353 36.3188 10.7175 36.6275 9.39958C36.7138 9.03105 36.8002 8.66255 36.8867 8.29408C36.9862 7.87064 37.0853 7.44715 37.1843 7.02361C37.2203 6.86977 37.2564 6.71595 37.2926 6.56215C37.3415 6.35411 37.3901 6.146 37.4386 5.93786C37.4529 5.87721 37.4673 5.81655 37.4821 5.75405C37.5356 5.52319 37.5782 5.31602 37.5782 5.07813C37.3629 5.07813 37.2441 5.1015 37.0444 5.16774ZM23.1251 16.5625C22.9541 16.6316 22.9541 16.6316 22.7629 16.7413C22.6507 16.8026 22.6507 16.8026 22.5362 16.865C22.455 16.9102 22.3738 16.9554 22.2901 17.002C22.2058 17.0483 22.1214 17.0946 22.0345 17.1424C21.4055 17.4889 20.7801 17.8417 20.1558 18.1965C19.553 18.5387 18.9471 18.8748 18.3399 19.209C18.2922 19.2353 18.2444 19.2616 18.1952 19.2887C18.1473 19.315 18.0994 19.3414 18.0501 19.3685C17.9534 19.4218 17.8568 19.475 17.7601 19.5282C17.6883 19.5677 17.6883 19.5677 17.6151 19.608C17.0346 19.9278 16.4556 20.2501 15.8765 20.5724C15.4018 20.8364 14.9266 21.0995 14.4508 21.3614C14.3725 21.4045 14.3725 21.4045 14.2927 21.4484C14.039 21.5881 13.7853 21.7277 13.5314 21.8671C13.4399 21.9174 13.3484 21.9678 13.2569 22.0181C13.1767 22.0622 13.0964 22.1063 13.0137 22.1517C12.8651 22.2359 12.7204 22.3271 12.5782 22.4219C12.6245 22.892 12.6934 23.346 12.7943 23.8072C12.808 23.8714 12.8218 23.9355 12.8359 24.0015C12.8808 24.2108 12.9262 24.42 12.9716 24.6292C13.003 24.7753 13.0345 24.9215 13.0658 25.0676C13.1481 25.4503 13.2308 25.8328 13.3136 26.2154C13.3982 26.6066 13.4823 26.9978 13.5665 27.3891C13.7315 28.1553 13.8969 28.9214 14.0626 29.6875C14.2357 29.6231 14.2357 29.6231 14.283 29.4391C14.3039 29.364 14.3248 29.2888 14.3464 29.2113C14.3704 29.1262 14.3944 29.0412 14.4191 28.9535C14.4447 28.8607 14.4702 28.7678 14.4966 28.6722C14.5233 28.577 14.5501 28.4819 14.5777 28.3839C14.6492 28.1298 14.7201 27.8757 14.7908 27.6215C14.8896 27.2659 14.9889 26.9105 15.0888 26.5553C15.1419 26.3663 15.1946 26.1772 15.2469 25.9879C15.6667 24.4921 15.6667 24.4921 16.0792 24.1309C16.2815 23.9445 16.4694 23.761 16.6456 23.5498C16.9267 23.2219 17.2325 22.9209 17.5392 22.6172C17.9825 22.1808 17.9825 22.1808 18.3985 21.7188C18.714 21.3441 19.0689 21.0075 19.4166 20.6631C19.6587 20.4225 19.8972 20.1832 20.1173 19.9219C20.4328 19.5473 20.7877 19.2106 21.1353 18.8663C21.3774 18.6256 21.616 18.3863 21.836 18.125C22.0177 17.9136 22.2051 17.7118 22.4021 17.5146C22.4557 17.461 22.5093 17.4073 22.5645 17.352C22.803 17.1144 23.0418 16.8772 23.2813 16.6406C23.204 16.602 23.204 16.602 23.1251 16.5625ZM17.3438 27.3438C17.1767 27.9194 17.0098 28.4951 16.8432 29.0709C16.7864 29.2669 16.7296 29.4628 16.6726 29.6588C16.591 29.9399 16.5096 30.2211 16.4283 30.5023C16.4027 30.5904 16.3771 30.6784 16.3506 30.7692C16.3272 30.8505 16.3037 30.9318 16.2795 31.0156C16.2483 31.1233 16.2483 31.1233 16.2165 31.2332C16.1655 31.4017 16.1655 31.4017 16.172 31.5625C16.3942 31.4578 16.5876 31.3392 16.7848 31.1929C16.8718 31.1286 16.8718 31.1286 16.9606 31.063C17.0536 30.9936 17.0536 30.9936 17.1485 30.9229C17.2128 30.8752 17.2771 30.8276 17.3433 30.7785C18.0749 30.2355 18.8034 29.6885 19.5313 29.1406C19.2511 28.8531 18.96 28.588 18.6524 28.3301C18.6083 28.2929 18.5641 28.2557 18.5185 28.2174C17.9711 27.6639 17.9711 27.6639 17.3438 27.3438Z" fill="#00A66E"/>
</g>
<defs>
<clipPath id="clip0_209_28">
<rect width="40" height="40" fill="white"/>
</clipPath>
</defs>
</svg>
